<?xml version="1.0" encoding="UTF-8" standalone="no"?>
<!-- Created with Inkscape (http://www.inkscape.org/) -->

<svg
   width="520"
   height="880"
   viewBox="0 0 137.58333 232.83333"
   version="1.1"
   id="svg1"
   inkscape:version="1.3.2 (091e20e, 2023-11-25, custom)"
   sodipodi:docname="dog running cycle 3.svg"
   xmlns:inkscape="http://www.inkscape.org/namespaces/inkscape"
   xmlns:sodipodi="http://sodipodi.sourceforge.net/DTD/sodipodi-0.dtd"
   xmlns="http://www.w3.org/2000/svg"
   xmlns:svg="http://www.w3.org/2000/svg">
  <sodipodi:namedview
     id="namedview1"
     pagecolor="#ffffff"
     bordercolor="#000000"
     borderopacity="0.25"
     inkscape:showpageshadow="2"
     inkscape:pageopacity="0.0"
     inkscape:pagecheckerboard="0"
     inkscape:deskcolor="#d1d1d1"
     inkscape:document-units="px"
     showguides="true"
     inkscape:zoom="1.6290957"
     inkscape:cx="269.47466"
     inkscape:cy="434.59695"
     inkscape:window-width="1536"
     inkscape:window-height="890"
     inkscape:window-x="-6"
     inkscape:window-y="-6"
     inkscape:window-maximized="1"
     inkscape:current-layer="svg1">
    <sodipodi:guide
       position="68.791665,116.41666"
       orientation="-1,0"
       id="guide1"
       inkscape:locked="false"
       inkscape:label=""
       inkscape:color="rgb(0,134,229)" />
    <sodipodi:guide
       position="68.791665,116.41666"
       orientation="0,1"
       id="guide2"
       inkscape:locked="false"
       inkscape:label=""
       inkscape:color="rgb(0,134,229)" />
  </sodipodi:namedview>
  <defs
     id="defs1" />
  <g
     id="g2"
     transform="matrix(0.65294115,0,0,0.65294115,-42.673014,45.108247)"
     style="display:none">
    <path
       style="fill:#000000;stroke-width:0.189915"
       d="m 238.23212,128.67846 c -0.32248,-0.0771 -0.68929,-0.20381 -0.81513,-0.28158 -0.12585,-0.0778 -0.95121,-0.33432 -1.83414,-0.57009 -1.26386,-0.3375 -1.79742,-0.39466 -2.50839,-0.26872 -2.13328,0.37789 -3.0097,0.48454 -3.277,0.39879 -0.65577,-0.21037 -3.53039,-1.44261 -3.72803,-1.59806 -0.11803,-0.0928 -0.92992,-0.41451 -1.80419,-0.71484 -0.87428,-0.30033 -1.91761,-0.68725 -2.31852,-0.85982 -0.4009,-0.17257 -1.21279,-0.40109 -1.80419,-0.50782 -0.5914,-0.10673 -1.75897,-0.40021 -2.5946,-0.65218 -0.83563,-0.25197 -2.71579,-0.5875 -4.17814,-0.74563 -2.89732,-0.3133 -6.08679,-1.25042 -6.77691,-1.99117 -0.19784,-0.21236 -0.42568,-0.38611 -0.50631,-0.38611 -0.0806,0 -1.06879,-0.88818 -2.1959,-1.97375 -1.88208,-1.81269 -2.15752,-2.0079 -3.37562,-2.39234 -0.84683,-0.26726 -1.57794,-0.38183 -2.02232,-0.31689 -3.89513,0.56918 -5.75518,0.67988 -8.48251,0.50485 -1.79817,-0.11541 -3.54911,-0.3537 -4.74788,-0.64616 -1.04454,-0.25483 -2.61174,-0.56065 -3.48268,-0.67959 -0.87094,-0.11895 -2.13457,-0.38646 -2.80807,-0.59449 -1.75386,-0.54171 -5.92881,-1.11651 -8.11698,-1.11753 -1.7913,-8.4e-4 -5.79183,-0.56185 -9.03467,-1.26697 -1.61139,-0.35039 -4.64628,-0.26037 -7.1092,0.21087 -1.86061,0.35599 -2.09545,0.49779 -2.37617,1.43474 -0.51909,1.73256 -1.54648,1.95212 -3.7025,0.79125 -0.74403,-0.40061 -1.84736,-0.88942 -2.45184,-1.08625 l -1.09904,-0.35787 -1.55977,0.54496 c -0.85787,0.29973 -1.68796,0.64828 -1.84464,0.77456 -0.15668,0.12628 -0.75491,0.45363 -1.3294,0.72745 -0.5745,0.27382 -1.40251,0.77729 -1.84003,1.11883 -0.43752,0.34154 -1.33012,1.03884 -1.98356,1.54955 -0.65343,0.51072 -1.91924,1.27987 -2.8129,1.70924 l -1.62483,0.78067 h -2.84873 c -2.55683,0 -3.02386,-0.053 -4.55796,-0.51763 -0.94008,-0.2847 -2.3502,-0.61161 -3.1336,-0.72647 -0.7834,-0.11486 -1.97987,-0.3694 -2.65882,-0.56565 -0.67894,-0.19624 -2.34492,-0.49889 -3.70217,-0.67255 -2.90232,-0.37136 -4.36148,-0.21156 -6.33718,0.69402 -0.66456,0.30461 -1.3173,0.55383 -1.45053,0.55383 -0.13323,0 -0.67708,0.29912 -1.20855,0.6647 -0.53147,0.36559 -1.04575,0.66471 -1.14283,0.66471 -0.0971,0 -0.54783,0.30775 -1.00164,0.68389 -0.45381,0.37614 -1.15865,0.95301 -1.5663,1.28193 -0.40766,0.32892 -0.94635,0.79099 -1.19709,1.02682 -0.39912,0.3754 -1.00373,0.85034 -3.073743,2.41455 -0.272533,0.20594 -0.602389,0.51957 -0.733012,0.69695 -0.130623,0.17739 -0.663261,0.46394 -1.183639,0.63678 -0.792181,0.26312 -1.115866,0.27902 -1.989148,0.0977 -0.573653,-0.11909 -1.408406,-0.41049 -1.855006,-0.64756 -0.446599,-0.23707 -1.189574,-0.49116 -1.651054,-0.56464 -0.79019,-0.12582 -1.325291,-0.52206 -1.338931,-0.99147 -0.0033,-0.11432 0.20813,-0.45616 0.469893,-0.75966 0.261763,-0.30349 0.524017,-0.70171 0.582787,-0.88492 0.05877,-0.18322 0.309075,-0.43961 0.556233,-0.56975 0.247159,-0.13014 0.647234,-0.52987 0.889056,-0.88828 0.525313,-0.77857 1.2286,-1.01575 2.557979,-0.86266 0.610804,0.0703 1.026098,0.0362 1.104584,-0.0908 0.122581,-0.19834 1.32903,-1.04133 3.138798,-2.1932 0.49233,-0.31336 1.15866,-0.74067 1.480733,-0.94958 0.81821,-0.53072 1.66871,-1.05912 2.59834,-1.61428 1.47776,-0.8825 2.46868,-1.56608 3.70793,-2.5579 1.68487,-1.34847 1.73192,-1.36761 4.19154,-1.70466 2.94939,-0.40416 7.48955,-1.22346 8.53278,-1.53979 2.00426,-0.60773 3.96746,-1.37378 4.50915,-1.7595 0.32023,-0.22802 0.65958,-0.41459 0.7541,-0.41459 0.22431,0 1.78468,-1.84369 2.12969,-2.51638 0.14732,-0.28724 0.33615,-0.52226 0.41961,-0.52226 0.0835,0 0.26387,-0.21397 0.4009,-0.47549 0.13702,-0.26152 1.19015,-1.43662 2.34029,-2.61134 2.61475,-2.67062 3.48342,-4.251104 3.21376,-5.847204 l -0.12699,-0.75165 h -1.08997 c -1.21256,0 -4.4104,0.95556 -5.04888,1.50867 -0.20891,0.18097 -0.72168,0.5296 -1.1395,0.77473 -1.12166,0.658074 -1.77751,1.208204 -4.07012,3.414064 -3.50322,3.37064 -4.63409,4.34547 -6.93996,5.98233 -1.87986,1.33445 -3.78672,2.44793 -4.69021,2.73875 -0.38335,0.1234 -0.80047,0.34905 -0.92694,0.50144 -0.12648,0.15239 -0.71018,0.41534 -1.29712,0.58434 -0.58695,0.16899 -1.46884,0.50925 -1.95977,0.75613 -0.52165,0.26232 -1.67571,0.56648 -2.77698,0.73189 -1.03641,0.15567 -2.42944,0.41152 -3.095623,0.56856 -0.66618,0.15703 -2.031051,0.28678 -3.033043,0.28833 -1.528179,0.002 -1.951226,-0.0661 -2.624811,-0.42451 -0.441655,-0.23502 -0.946502,-0.66835 -1.121884,-0.96295 -0.306659,-0.51513 -0.302904,-0.54871 0.09803,-0.87664 0.365019,-0.29855 0.849525,-0.34355 3.893263,-0.36161 2.326355,-0.0138 3.790488,-0.10794 4.425938,-0.28457 3.04836,-0.84734 4.60667,-1.3394 4.97912,-1.57222 0.23163,-0.1448 0.8726,-0.44045 1.42436,-0.65701 0.55177,-0.21655 1.17413,-0.54825 1.38304,-0.7371 0.20891,-0.18885 0.67895,-0.4932 1.04454,-0.67633 0.36558,-0.18313 1.00655,-0.6187 1.42436,-0.96794 0.41781,-0.34923 1.01605,-0.84868 1.32941,-1.10987 0.31336,-0.2612 1.78814,-1.65169 3.2773,-3.08998 4.64631,-4.487594 6.99793,-6.519044 7.99998,-6.910784 0.24866,-0.0972 0.70473,-0.35663 1.01347,-0.57648 0.55223,-0.39322 2.74745,-1.24852 4.6117,-1.7968 1.09915,-0.32327 4.10502,-0.37527 5.52259,-0.0956 0.79752,0.15736 1.34037,0.1121 3.13361,-0.26131 1.19293,-0.2484 2.46809,-0.545 2.83368,-0.65911 1.48755,-0.46431 7.12458,-0.63632 12.96901,-0.39576 7.55515,0.31099 13.93771,0.0118 17.89222,-0.83855 3.52782,-0.75865 6.86844,-1.27372 10.54029,-1.62516 3.88127,-0.37147 5.55913,-0.63775 6.50266,-1.03198 0.3446,-0.14399 1.7951,-0.44006 3.22333,-0.65794 1.42822,-0.21788 2.80317,-0.47462 3.05544,-0.57053 0.25227,-0.0959 1.60319,-0.35752 3.00204,-0.58134 1.39884,-0.22382 3.22705,-0.60928 4.06268,-0.85657 0.83563,-0.24729 2.2303,-0.5905 3.09928,-0.76269 0.86898,-0.17219 1.85179,-0.42584 2.18403,-0.56366 0.33223,-0.13783 1.45868,-0.38576 2.50321,-0.55096 1.04454,-0.1652 2.71105,-0.46696 3.70335,-0.67057 0.99231,-0.20362 2.29879,-0.42914 2.90329,-0.50116 0.60449,-0.072 1.27385,-0.27246 1.48745,-0.44542 0.3629,-0.29386 0.36937,-0.35151 0.0987,-0.87933 -1.19064,-2.32214 -1.19308,-2.48577 -0.0409,-2.74561 0.6931,-0.15632 0.72829,-0.13582 1.95765,1.14045 1.14291,1.18652 1.36075,1.32657 2.50307,1.60919 3.05474,0.75578 5.26369,1.45401 5.89064,1.86201 2.34941,1.52887 2.91131,1.9582 3.48957,2.66626 0.35496,0.43462 0.81963,1.18571 1.0326,1.66909 0.54401,1.23474 2.47878,2.95069 4.70222,4.17044 0.41782,0.2292 1.25898,0.75511 1.86925,1.16867 1.06887,0.72435 1.10507,0.77597 0.98673,1.40679 -0.30286,1.61439 -2.20081,3.87865 -3.74206,4.46428 -1.86416,0.708324 -5.40345,0.328284 -8.13741,-0.87377 -1.15014,-0.50568 -1.9994,-0.72805 -3.37826,-0.88454 -3.0698,-0.34841 -9.07506,0.14641 -10.82659,0.89207 -0.38554,0.16414 -1.25648,0.47152 -1.93543,0.68307 -1.99461,0.621514 -3.49597,1.407624 -4.22099,2.210144 -0.69585,0.77022 -1.27693,2.31786 -1.32218,3.52147 -0.0259,0.68757 0.58758,2.11545 1.26044,2.93393 0.23022,0.28004 0.5687,0.89375 0.75219,1.36379 0.18348,0.47004 0.49478,1.11683 0.69177,1.43731 0.197,0.32048 0.48084,1.10852 0.63076,1.75119 0.27436,1.17609 0.74368,1.96079 1.482,2.47793 0.30192,0.21148 1.35551,0.31471 4.31358,0.42263 2.15275,0.0785 4.14083,0.23096 4.41796,0.3387 1.01206,0.39345 2.83457,0.60716 6.63125,0.77759 3.5214,0.15808 4.05324,0.22808 5.75499,0.7575 1.03127,0.32084 1.96144,0.58333 2.06704,0.58333 0.26253,0 3.05907,1.42217 4.22428,2.14825 0.52227,0.32544 1.41962,1.05577 1.99412,1.62295 0.57449,0.56718 1.3449,1.221 1.71202,1.45292 1.21694,0.76879 1.23313,0.82843 0.76943,2.83511 -0.44434,1.92288 -0.36174,1.8072 -2.55245,3.57454 -0.67008,0.54059 -2.02195,1.10529 -2.56422,1.07112 -0.16966,-0.0107 -0.57232,-0.0825 -0.89479,-0.15961 z m 2.66767,-4.67269 c 0.37996,-0.50244 0.36793,-0.55137 -0.21171,-0.86111 -0.27737,-0.14822 -0.95891,-0.83909 -1.51454,-1.53527 -0.75361,-0.94426 -1.16823,-1.29949 -1.63224,-1.39846 -0.34211,-0.073 -1.22025,-0.32594 -1.95142,-0.56215 -1.4393,-0.46497 -2.42591,-0.5857 -6.93191,-0.84824 -3.32308,-0.19361 -5.35906,-0.0485 -5.82254,0.41498 -0.28425,0.28425 -0.21403,0.35377 0.90552,0.89653 0.66752,0.32361 1.9401,0.97041 2.82795,1.43734 0.88786,0.46693 2.21252,1.01605 2.94369,1.22026 0.73117,0.2042 1.82473,0.54885 2.43012,0.76589 1.21995,0.43734 5.60585,0.95571 7.49128,0.88538 0.91975,-0.0343 1.24814,-0.12732 1.4658,-0.41515 z M 230.37258,87.734376 c 0.19609,-0.23626 0.19441,-0.37988 -0.009,-0.75966 -0.13785,-0.25757 -0.30722,-0.46831 -0.37637,-0.46831 -0.0692,0 -0.23852,0.21074 -0.37637,0.46831 -0.20325,0.37978 -0.20492,0.5234 -0.009,0.75966 0.13298,0.16024 0.30633,0.29135 0.3852,0.29135 0.0789,0 0.25221,-0.13111 0.3852,-0.29135 z"
       id="path47" />
    <rect
       style="fill:none;stroke:#000000;stroke-opacity:1"
       id="rect1"
       width="209.54581"
       height="107.46752"
       x="65.938774"
       y="55.477333" />
  </g>
  <g
     id="g3"
     transform="matrix(0.65294081,0,0,0.65294081,-189.04038,44.992775)"
     style="display:none">
    <path
       style="fill:#000000;stroke-width:0.189915"
       d="m 455.70166,141.23054 c -0.43573,-0.14168 -1.90104,-1.07786 -2.48184,-1.58564 -0.21603,-0.18886 -1.09447,-0.59948 -1.9521,-0.91247 -1.77006,-0.64599 -3.13071,-0.73102 -4.41982,-0.2762 -1.42015,0.50106 -2.05744,0.12092 -5.5798,-3.32835 -4.23764,-4.14971 -7.7734,-7.13413 -9.52852,-8.04271 -0.29534,-0.15289 -1.01471,-0.60719 -1.5986,-1.00954 -3.25938,-2.24604 -3.22998,-2.21944 -6.43625,-5.82371 -2.07482,-2.33239 -2.58933,-2.63112 -4.06384,-2.35959 -1.65319,0.30443 -6.45254,0.0577 -8.09452,-0.41609 -0.7834,-0.22606 -2.32172,-0.62225 -3.41848,-0.88041 -1.09676,-0.25817 -2.29322,-0.59379 -2.65881,-0.74582 -0.36559,-0.15202 -1.39113,-0.45564 -2.27898,-0.67469 -0.88786,-0.21905 -2.38344,-0.64352 -3.32352,-0.94327 -0.94008,-0.29974 -2.30747,-0.73428 -3.03865,-0.96565 -0.73117,-0.23136 -2.48314,-0.71372 -3.89326,-1.07191 -6.04195,-1.53473 -8.16163,-1.86129 -11.8697,-1.82866 -3.20497,0.0282 -4.35463,0.27874 -4.73674,1.03223 -0.12886,0.25411 -0.35769,0.71841 -0.50852,1.03177 -0.2194,0.45584 -0.41266,0.58137 -0.9667,0.62787 -0.56369,0.0473 -0.94777,-0.11163 -2.06512,-0.85462 -1.29234,-0.85935 -1.44591,-0.91274 -2.62507,-0.91274 -1.13801,0 -1.38255,0.0764 -2.67679,0.83623 -1.6431,0.96464 -3.8144,2.79228 -5.31763,4.47598 -1.8945,2.12196 -2.42731,2.50208 -4.10893,2.93143 -2.01022,0.51326 -4.40939,0.67805 -5.95658,0.40916 -0.67895,-0.118 -2.55911,-0.42581 -4.17814,-0.68402 -1.61902,-0.25821 -3.37099,-0.59181 -3.89326,-0.74133 -1.39364,-0.39899 -4.45265,-0.58101 -5.26404,-0.31323 -0.77146,0.2546 -2.16401,1.92492 -2.91081,3.49139 -0.2594,0.54412 -0.59398,1.20296 -0.74351,1.46409 -0.92309,1.61202 -2.60467,6.14479 -2.85345,7.69157 -0.0672,0.41781 -0.25558,1.13232 -0.41863,1.5878 -0.2869,0.80144 -0.31788,0.82466 -0.96099,0.7203 -0.89255,-0.14484 -1.29656,-0.55154 -1.74891,-1.76056 -0.48196,-1.28815 -0.37113,-1.91452 0.6103,-3.44897 0.7843,-1.22625 2.00579,-4.35798 2.17121,-5.56668 0.0648,-0.4738 -8.4e-4,-0.7757 -0.21541,-0.99028 -0.28497,-0.28497 -0.33735,-0.28002 -0.68174,0.0644 -0.20517,0.20517 -0.45331,0.37305 -0.55141,0.37305 -0.0981,0 -0.56611,0.32048 -1.04002,0.71218 -2.13004,1.76052 -2.81128,2.19625 -5.42865,3.47228 -1.07315,0.52319 -2.11976,0.86997 -3.12224,1.03451 -1.63536,0.26843 -2.28702,0.13774 -2.48917,-0.49918 -0.1691,-0.53279 0.59053,-1.68664 1.66941,-2.53577 1.28334,-1.01005 1.59284,-1.16024 2.68473,-1.30283 1.15834,-0.15127 1.95654,-0.62928 3.58019,-2.14404 0.70312,-0.65596 1.51501,-1.34132 1.8042,-1.52302 0.28919,-0.1817 0.84439,-0.59066 1.23376,-0.90879 1.59861,-1.30614 1.98095,-1.58498 2.61556,-1.90754 0.36559,-0.18582 0.94543,-0.58238 1.28854,-0.88126 0.34311,-0.29887 0.69188,-0.54341 0.77505,-0.54341 0.0832,0 0.26761,-0.21748 0.40987,-0.4833 0.39596,-0.73986 1.93159,-1.74974 2.87173,-1.88854 0.45488,-0.0672 3.47638,-0.18576 6.71443,-0.26356 l 5.88738,-0.14145 1.44546,-0.6761 c 0.79501,-0.37185 1.52015,-0.79397 1.61143,-0.93803 0.0913,-0.14407 0.1809,-1.28749 0.19915,-2.54093 0.0424,-2.91268 0.24762,-6.24197 0.44484,-7.21678 0.44713,-2.210005 1.37194,-5.308651 1.71431,-5.743908 0.50413,-0.640894 0.20819,-0.985108 -0.88374,-1.027894 -0.78491,-0.03076 -2.91753,0.879914 -4.37195,1.86691 -0.35463,0.240657 -0.90799,0.573671 -1.2297,0.740033 -0.32171,0.166362 -2.42233,2.137472 -4.66805,4.380239 -4.22997,4.22442 -5.91149,5.74028 -6.94916,6.26454 -0.33367,0.16858 -0.78149,0.46592 -0.99517,0.66077 -0.21367,0.19485 -0.76918,0.55575 -1.23445,0.80202 -0.46527,0.24626 -1.18779,0.62908 -1.6056,0.85071 -1.60661,0.85223 -3.27653,1.54364 -4.45459,1.84438 -0.67431,0.17213 -1.44347,0.42529 -1.70924,0.56256 -1.00493,0.51908 -7.36127,1.14982 -8.65251,0.8586 -0.3955,-0.0892 -0.89848,-0.3444 -1.11773,-0.56712 l -0.39864,-0.40493 0.43004,-0.35344 c 0.28204,-0.2318 0.87029,-0.39062 1.70924,-0.46147 4.2702,-0.36062 9.5075,-1.66945 12.29427,-3.07242 2.65755,-1.33791 3.98537,-2.41502 8.15884,-6.61837 1.45821,-1.468646 3.06852,-3.128571 3.57846,-3.688716 0.94971,-1.043204 3.42885,-3.276411 4.78533,-4.310631 1.49306,-1.138348 3.61908,-2.144771 5.52719,-2.616488 2.75828,-0.681893 3.2846,-0.723383 5.11886,-0.403514 1.48913,0.259682 1.81628,0.259956 3.10581,0.0026 0.79275,-0.158215 2.25325,-0.387082 3.24556,-0.508593 2.43855,-0.29861 13.97131,-0.304722 22.78983,-0.01208 5.34349,0.177325 9.8723,0.189162 18.13691,0.0474 10.51774,-0.180405 13.69818,-0.346967 14.8281,-0.776561 0.28018,-0.106527 1.56138,-0.364665 2.8471,-0.573639 1.28572,-0.208974 3.00521,-0.551495 3.82111,-0.761157 0.81589,-0.209662 2.38078,-0.513214 3.47754,-0.674559 1.09676,-0.161345 2.629,-0.457472 3.40498,-0.658058 0.79991,-0.206773 2.73255,-0.451402 4.46301,-0.564915 1.67868,-0.110116 3.43672,-0.259885 3.90676,-0.33282 1.01692,-0.157791 1.03209,-0.32694 0.17868,-1.991962 -0.47439,-0.925535 -0.52867,-1.166151 -0.34274,-1.519322 0.22137,-0.420478 0.52407,-0.696148 0.77039,-0.701593 0.0723,-0.0016 0.708,0.675307 1.41256,1.504238 1.45358,1.710159 1.77307,1.876206 4.73553,2.461168 3.71809,0.734165 3.89098,0.847669 8.15913,5.356698 0.73403,0.775459 1.75957,1.632319 2.27898,1.904132 0.51941,0.271813 1.54038,0.806232 2.26884,1.187598 1.81072,0.94796 2.75871,1.894432 2.75871,2.754276 0,1.61901 -2.55519,3.862768 -4.82776,4.239348 -1.52104,0.25204 -3.25866,0.009 -5.00619,-0.701606 -1.73608,-0.70547 -4.42132,-0.927523 -9.5374,-0.78868 -2.3502,0.0638 -4.78587,0.20707 -5.41259,0.31842 -1.37307,0.24396 -5.1747,1.471336 -5.32862,1.720386 -0.0603,0.0977 -0.46715,0.35874 -0.90399,0.58019 -0.79396,0.40249 -2.49229,1.71105 -2.92018,2.24999 -0.61121,0.76984 -0.69442,1.11872 -0.45632,1.91341 0.20016,0.66809 0.37225,0.84411 1.21776,1.24562 1.04273,0.49516 2.26171,1.17454 3.3586,1.87187 2.98294,1.89636 10.48709,5.80421 11.71445,6.1004 0.2943,0.071 1.00512,0.36261 1.57962,0.64797 0.57449,0.28537 1.34365,0.58198 1.70923,0.65915 0.36559,0.0772 1.15239,0.34367 1.74843,0.59223 0.98387,0.41029 1.98322,0.71151 5.89829,1.77779 1.90016,0.51752 9.82873,0.74272 11.41451,0.32422 0.61283,-0.16173 1.29896,-0.46759 1.52473,-0.6797 0.22577,-0.21209 0.77169,-0.51307 1.21316,-0.66883 0.78154,-0.27574 0.81043,-0.27133 1.09815,0.16779 0.44512,0.67934 0.16783,1.73528 -0.73811,2.81082 -1.08303,1.28579 -1.83744,1.47588 -5.30051,1.33557 -2.5805,-0.10456 -2.80447,-0.0838 -4.50511,0.41653 -1.48297,0.43633 -2.01248,0.50787 -3.09025,0.41752 -0.71534,-0.06 -1.57528,-0.25111 -1.91096,-0.42475 -1.49422,-0.77292 -5.62702,-1.96 -7.55925,-2.17128 -1.0874,-0.1189 -2.61807,-0.2981 -3.40147,-0.39821 -0.7834,-0.10012 -2.83448,-0.35488 -4.55796,-0.56615 -3.2761,-0.40158 -4.4783,-0.64861 -6.34416,-1.30361 -1.38427,-0.48595 -1.67591,-0.4903 -2.09136,-0.0312 -0.71108,0.78573 0.0689,2.05458 3.83489,6.23839 2.62372,2.91482 5.30502,5.84209 5.94113,6.48614 0.26723,0.27057 0.94737,1.00471 1.51143,1.63143 1.67385,1.85983 2.27818,2.20838 4.3603,2.51481 0.99481,0.14642 2.32151,0.46811 2.94823,0.71488 0.62672,0.24676 1.87233,0.57252 2.768,0.72389 1.94973,0.32952 4.06349,1.41296 5.15048,2.63996 0.66203,0.74731 0.68184,0.80599 0.35039,1.03815 -0.19322,0.13534 -0.8081,0.34169 -1.3664,0.45857 -0.5583,0.11687 -1.28157,0.3741 -1.60725,0.57161 -0.6059,0.36743 -1.0168,0.4156 -1.68683,0.19774 z m -1.44527,-50.615763 c 0.34772,-0.418985 -0.20165,-0.736617 -1.01132,-0.584721 -0.84828,0.159137 -1.0267,0.413482 -0.45181,0.644049 0.6454,0.258845 1.21835,0.235613 1.46313,-0.05933 z"
       id="path48" />
    <rect
       style="fill:none;stroke:#000000;stroke-opacity:1"
       id="rect1-2"
       width="209.54581"
       height="107.46752"
       x="290.10522"
       y="55.65424" />
  </g>
  <g
     id="g4"
     transform="matrix(0.65294081,0,0,0.65294081,-334.12069,44.961227)">
    <path
       style="fill:#000000;stroke-width:0.189915"
       d="m 620.49707,141.19609 c -2.05492,-0.12193 -2.41721,-0.19595 -3.06842,-0.6269 -0.99945,-0.66141 -1.22545,-1.41765 -1.11048,-3.71596 0.0801,-1.60204 0.16785,-1.96866 0.72222,-3.01898 0.5554,-1.05225 0.62681,-1.35179 0.59596,-2.49991 -0.0484,-1.8019 0.15202,-2.23681 1.78911,-3.88232 0.21817,-0.21929 0.80107,-0.86875 1.29534,-1.44324 0.49426,-0.5745 1.06783,-1.23196 1.2746,-1.46102 0.20677,-0.22907 0.83737,-1.12642 1.40133,-1.99411 0.56397,-0.8677 1.20065,-1.8048 1.41485,-2.08245 0.244,-0.31628 0.38946,-0.78928 0.38946,-1.26644 0,-0.65572 -0.0865,-0.81511 -0.62248,-1.14633 -0.34237,-0.2116 -1.09016,-0.8736 -1.66176,-1.47112 -0.95674,-1.00013 -1.40747,-1.58178 -2.73969,-3.53551 -1.25311,-1.83771 -4.06993,-4.07089 -5.80124,-4.59923 -0.47004,-0.14344 -1.18378,-0.40165 -1.58608,-0.57379 -0.98537,-0.42164 -3.80979,-0.62089 -4.20084,-0.29635 -0.17858,0.14822 -0.29037,0.55696 -0.29037,1.06176 0,0.5839 -0.12332,0.95779 -0.42731,1.29553 -0.42705,0.47446 -0.42816,0.47459 -1.85167,0.21948 -0.97632,-0.17497 -1.74559,-0.20339 -2.44556,-0.0904 -1.11764,0.18049 -1.52635,0.39816 -2.53339,1.34926 -0.58567,0.55313 -0.69648,0.80947 -0.88882,2.05627 -0.12087,0.7834 -0.35436,1.97987 -0.51889,2.65881 -0.16452,0.67895 -0.36298,1.53357 -0.44101,1.89915 -0.3411,1.59814 -0.67222,2.03559 -2.07579,2.74242 -1.63376,0.82274 -3.32885,1.04418 -6.47968,0.84646 -3.11321,-0.19535 -8.82602,-1.58174 -11.70874,-2.84148 -1.0519,-0.45968 -1.79724,-0.27108 -1.99852,0.50569 -0.15224,0.58752 0.52227,3.41783 1.33073,5.58386 1.0149,2.71912 1.60689,5.3799 1.62677,7.31174 0.027,2.61821 -0.0668,2.88486 -1.04727,2.97836 -0.75898,0.0724 -0.80974,0.0411 -1.54359,-0.95231 l -0.7588,-1.02715 0.12844,-1.82886 c 0.14122,-2.01084 -0.13318,-3.58589 -1.21193,-6.95656 -0.30087,-0.94008 -0.86545,-2.81444 -1.25462,-4.16523 -0.65998,-2.29075 -0.69988,-2.57325 -0.5931,-4.19894 0.10959,-1.66835 0.0949,-1.76134 -0.3432,-2.17292 l -0.45769,-0.42998 -0.62554,0.36533 c -0.34404,0.20093 -0.73146,0.57471 -0.86093,0.83061 -0.56525,1.11726 -1.2659,3.08027 -1.75904,4.92829 -1.69561,6.35423 -4.32613,9.60424 -7.54832,9.32597 -0.12816,-0.0111 -0.36837,-0.22671 -0.53381,-0.47921 -0.25041,-0.38216 -0.2649,-0.59693 -0.0865,-1.28192 0.17462,-0.67041 0.54625,-1.1395 2.00598,-2.53209 2.00262,-1.91049 1.78437,-1.45274 3.39563,-7.12182 0.34141,-1.20122 0.85209,-2.99591 1.13485,-3.98822 0.95235,-3.34219 1.47206,-4.4055 2.39395,-4.89798 0.66651,-0.35605 3.05192,-0.17638 4.45731,0.33574 0.62672,0.22837 1.86591,0.60815 2.75377,0.84394 1.45877,0.38743 2.54173,0.71395 5.12771,1.54603 1.11456,0.35863 1.38695,0.34623 1.92263,-0.0875 0.41663,-0.33736 0.43104,-0.41429 0.22322,-1.19131 -0.17436,-0.65192 -0.16556,-1.26167 0.0409,-2.83375 0.22878,-1.74199 0.22629,-2.17464 -0.0191,-3.31917 -0.15522,-0.72385 -0.35148,-2.1016 -0.43612,-3.06166 -0.0992,-1.12479 -0.27252,-1.926616 -0.48746,-2.254653 l -0.33357,-0.509084 -2.117,0.09513 c -1.6949,0.07617 -2.34419,0.191146 -3.25649,0.57668 -0.62672,0.264851 -1.41995,0.585787 -1.76273,0.713207 -0.34278,0.12741 -0.9314,0.47655 -1.30804,0.77587 -0.37664,0.29932 -0.76658,0.54422 -0.86653,0.54422 -0.15313,0 -1.4982,0.93012 -3.98229,2.75377 -2.23948,1.64407 -5.26491,3.71042 -5.62825,3.84405 -0.17378,0.0639 -0.57236,0.30421 -0.88572,0.53399 -0.31336,0.22978 -0.91159,0.52331 -1.32941,0.65228 -0.41781,0.12897 -1.10469,0.43162 -1.5264,0.67254 -0.42171,0.24093 -1.31906,0.57769 -1.99411,0.74836 -0.67505,0.17067 -1.74014,0.49481 -2.36686,0.72032 -1.02524,0.36891 -1.52986,0.41051 -5.03275,0.41493 l -3.89327,0.005 -2.18402,-0.73718 c -1.20121,-0.40545 -2.29085,-0.82068 -2.42142,-0.92273 -0.13057,-0.10206 -0.23739,-0.51393 -0.23739,-0.91528 0,-1.04094 0.48097,-1.26397 1.62984,-0.75577 3.17954,1.40646 10.99804,1.47098 13.84825,0.11428 2.60416,-1.23958 3.08844,-1.47752 3.70335,-1.81956 0.36558,-0.20335 0.96382,-0.58595 1.3294,-0.85022 1.28984,-0.93238 1.99994,-1.4232 2.53499,-1.75218 0.29748,-0.18291 1.11103,-0.80452 1.80789,-1.38135 1.19016,-0.98516 1.75129,-1.37464 4.37979,-3.039986 4.37487,-2.771812 8.65672,-4.013002 12.66302,-3.670665 1.52566,0.130367 2.56121,-0.11627 3.3033,-0.786743 0.26113,-0.235934 0.81663,-0.652193 1.23445,-0.925021 0.41781,-0.272828 1.2297,-0.83588 1.80419,-1.251227 0.5745,-0.415347 1.47184,-0.966549 1.99411,-1.224894 0.52227,-0.258345 1.16323,-0.59959 1.42437,-0.758322 0.44421,-0.270017 2.06377,-0.960162 3.62427,-1.544416 1.01006,-0.378166 4.6929,-0.848197 6.64588,-0.848197 2.07728,0 6.71801,0.489292 8.15163,0.859462 0.57449,0.148337 1.77096,0.450932 2.65881,0.672433 1.68591,0.420598 2.5705,0.690864 3.96805,1.212336 0.45895,0.171249 1.70101,0.433005 2.76014,0.58168 1.05913,0.148676 2.27192,0.392475 2.69508,0.541776 0.42317,0.149301 1.40312,0.368443 2.17766,0.486982 0.77455,0.118538 2.17742,0.460976 3.1175,0.760972 0.94008,0.299996 2.30747,0.716609 3.03865,0.925806 0.73117,0.209197 1.69492,0.516869 2.14166,0.683715 0.86836,0.324312 6.06414,1.143079 9.34821,1.473122 1.09676,0.110222 3.27604,0.152201 4.84284,0.09329 2.40754,-0.09053 3.2605,-0.211242 5.50754,-0.779438 1.46235,-0.369776 3.00066,-0.831979 3.41848,-1.027118 0.41781,-0.195139 1.26878,-0.502437 1.89104,-0.682885 0.62226,-0.180447 1.51961,-0.523863 1.99411,-0.763145 0.4745,-0.239282 1.21806,-0.49431 1.65235,-0.56673 0.43429,-0.07242 0.93533,-0.238213 1.11341,-0.368431 0.30235,-0.221081 0.29674,-0.286196 -0.0848,-0.983321 -0.22471,-0.410609 -0.58707,-1.029476 -0.80524,-1.37526 -0.31915,-0.505838 -0.36279,-0.746817 -0.22331,-1.233145 0.2468,-0.860542 0.69356,-0.848142 1.49735,0.04156 1.22825,1.359534 1.76872,1.584608 3.65633,1.522666 3.3268,-0.109171 3.95446,-0.03392 5.54303,0.664528 1.36839,0.60165 2.71278,1.463772 3.72981,2.391833 1.47116,1.342473 4.33923,2.750006 6.99472,3.432729 1.87915,0.483127 2.11592,0.609888 2.48987,1.333034 0.60522,1.170372 -0.14694,2.70931 -2.19584,4.49276 -1.42261,1.23829 -2.70272,1.56168 -6.18192,1.56168 -3.18193,0 -6.45273,0.45222 -8.44156,1.16714 -0.57449,0.20651 -1.64277,0.52836 -2.37394,0.71522 -1.3863,0.35429 -4.09642,1.60001 -4.96182,2.28074 -0.27609,0.21717 -0.59729,0.39506 -0.71377,0.39531 -0.11648,2.5e-4 -0.72455,0.342 -1.35127,0.75943 -3.24698,2.1627 -3.95574,2.73469 -6.83695,5.51769 -0.94008,0.90803 -2.4784,2.33113 -3.41848,3.16243 -0.94008,0.8313 -2.17928,1.95749 -2.75377,2.50266 -1.16933,1.10962 -3.12349,2.33319 -4.27431,2.67629 -1.12229,0.33459 -1.44324,0.64456 -1.5587,1.50532 l -0.10337,0.77068 0.9266,0.38384 c 0.50963,0.21111 1.14026,0.51183 1.40139,0.66828 0.26113,0.15644 1.50033,0.8472 2.75377,1.53501 3.19911,1.75549 3.99764,2.22314 4.39806,2.57568 0.1924,0.16939 0.69167,0.48885 1.10948,0.70991 0.41782,0.22106 1.27244,0.78814 1.89916,1.26018 0.62672,0.47204 1.60953,1.08236 2.18402,1.35627 0.5745,0.2739 1.17673,0.61165 1.33829,0.75056 0.16157,0.13891 1.22985,0.56041 2.37394,0.93667 2.63357,0.86611 5.33249,1.08961 6.8941,0.57093 0.94417,-0.3136 1.00784,-0.31235 1.59815,0.0314 0.71818,0.41824 0.9151,1.14333 0.41068,1.51217 -0.18433,0.13478 -0.4702,0.44963 -0.63526,0.69965 -0.16506,0.25002 -0.67141,0.76413 -1.12522,1.14246 -1.08121,0.90138 -1.8586,0.9098 -3.80391,0.0412 -0.79655,-0.35566 -1.93502,-0.79711 -2.52994,-0.981 -1.00865,-0.31177 -1.17452,-0.31396 -2.45729,-0.0325 -1.29813,0.28485 -1.41371,0.28231 -2.05193,-0.0451 -0.37197,-0.1908 -0.88997,-0.57937 -1.1511,-0.86348 -0.94199,-1.02487 -2.69716,-2.23207 -5.50754,-3.78807 -0.67895,-0.37591 -1.53357,-0.86377 -1.89915,-1.08414 -1.4894,-0.89777 -2.4221,-1.40128 -3.32352,-1.79418 -2.7934,-1.21753 -5.25513,-2.23407 -6.26721,-2.58797 -1.80297,-0.63047 -2.77191,-1.29061 -3.35766,-2.28757 -0.58646,-0.99817 -0.57088,-1.56777 0.0784,-2.86473 0.36903,-0.73718 0.36901,-0.73778 -0.0318,-1.13949 -0.34384,-0.34458 -0.6917,-0.41546 -2.43824,-0.49688 -1.72943,-0.0806 -2.15194,-0.041 -2.79684,0.26211 -0.41782,0.19638 -0.81608,0.45277 -0.88503,0.56974 -0.069,0.11698 -1.06861,1.36642 -2.22145,2.77654 -1.15285,1.41013 -2.33069,2.85078 -2.61742,3.20145 -0.28674,0.35068 -0.76187,0.99164 -1.05585,1.42437 -0.29398,0.43272 -0.79439,1.12862 -1.11203,1.54643 -0.9063,1.19213 -1.93838,2.70828 -2.4809,3.64452 -0.43318,0.74756 -0.47333,0.95139 -0.31233,1.58568 0.14461,0.56972 0.33513,0.79846 0.87691,1.05283 1.11677,0.52433 3.0661,2.04588 3.0661,2.39323 1e-5,0.7175 -0.36591,1.29459 -0.80243,1.2655 -0.23761,-0.0158 -1.48053,-0.091 -2.76204,-0.16703 z m 56.60746,-45.123938 c 0.066,-0.06596 0.0338,-0.280842 -0.0715,-0.477514 -0.18367,-0.343195 -0.20939,-0.3441 -0.63915,-0.02251 -0.3887,0.290859 -0.40642,0.352112 -0.1343,0.464165 0.41444,0.170659 0.69806,0.182695 0.8449,0.03586 z"
       id="path49" />
    <rect
       style="fill:none;stroke:#000000;stroke-opacity:1"
       id="rect1-2-5"
       width="209.54581"
       height="107.46752"
       x="512.30042"
       y="55.702557" />
  </g>
</svg>
