<?xml version="1.0" encoding="UTF-8" standalone="no"?>
<!-- Created with Inkscape (http://www.inkscape.org/) -->

<svg
   width="520"
   height="880"
   viewBox="0 0 137.58333 232.83333"
   version="1.1"
   id="svg1"
   inkscape:version="1.3.2 (091e20e, 2023-11-25, custom)"
   sodipodi:docname="dog running cycle 1.svg"
   xmlns:inkscape="http://www.inkscape.org/namespaces/inkscape"
   xmlns:sodipodi="http://sodipodi.sourceforge.net/DTD/sodipodi-0.dtd"
   xmlns="http://www.w3.org/2000/svg"
   xmlns:svg="http://www.w3.org/2000/svg">
  <sodipodi:namedview
     id="namedview1"
     pagecolor="#ffffff"
     bordercolor="#000000"
     borderopacity="0.25"
     inkscape:showpageshadow="2"
     inkscape:pageopacity="0.0"
     inkscape:pagecheckerboard="0"
     inkscape:deskcolor="#d1d1d1"
     inkscape:document-units="px"
     showguides="true"
     inkscape:zoom="1.6290957"
     inkscape:cx="269.47466"
     inkscape:cy="434.59695"
     inkscape:window-width="1536"
     inkscape:window-height="890"
     inkscape:window-x="-6"
     inkscape:window-y="-6"
     inkscape:window-maximized="1"
     inkscape:current-layer="svg1">
    <sodipodi:guide
       position="68.791665,116.41666"
       orientation="-1,0"
       id="guide1"
       inkscape:locked="false"
       inkscape:label=""
       inkscape:color="rgb(0,134,229)" />
    <sodipodi:guide
       position="68.791665,116.41666"
       orientation="0,1"
       id="guide2"
       inkscape:locked="false"
       inkscape:label=""
       inkscape:color="rgb(0,134,229)" />
  </sodipodi:namedview>
  <defs
     id="defs1" />
  <g
     id="g2"
     transform="matrix(0.65294115,0,0,0.65294115,-42.673014,45.108247)"
     style="display:inline">
    <path
       style="fill:#000000;stroke-width:0.189915"
       d="m 238.23212,128.67846 c -0.32248,-0.0771 -0.68929,-0.20381 -0.81513,-0.28158 -0.12585,-0.0778 -0.95121,-0.33432 -1.83414,-0.57009 -1.26386,-0.3375 -1.79742,-0.39466 -2.50839,-0.26872 -2.13328,0.37789 -3.0097,0.48454 -3.277,0.39879 -0.65577,-0.21037 -3.53039,-1.44261 -3.72803,-1.59806 -0.11803,-0.0928 -0.92992,-0.41451 -1.80419,-0.71484 -0.87428,-0.30033 -1.91761,-0.68725 -2.31852,-0.85982 -0.4009,-0.17257 -1.21279,-0.40109 -1.80419,-0.50782 -0.5914,-0.10673 -1.75897,-0.40021 -2.5946,-0.65218 -0.83563,-0.25197 -2.71579,-0.5875 -4.17814,-0.74563 -2.89732,-0.3133 -6.08679,-1.25042 -6.77691,-1.99117 -0.19784,-0.21236 -0.42568,-0.38611 -0.50631,-0.38611 -0.0806,0 -1.06879,-0.88818 -2.1959,-1.97375 -1.88208,-1.81269 -2.15752,-2.0079 -3.37562,-2.39234 -0.84683,-0.26726 -1.57794,-0.38183 -2.02232,-0.31689 -3.89513,0.56918 -5.75518,0.67988 -8.48251,0.50485 -1.79817,-0.11541 -3.54911,-0.3537 -4.74788,-0.64616 -1.04454,-0.25483 -2.61174,-0.56065 -3.48268,-0.67959 -0.87094,-0.11895 -2.13457,-0.38646 -2.80807,-0.59449 -1.75386,-0.54171 -5.92881,-1.11651 -8.11698,-1.11753 -1.7913,-8.4e-4 -5.79183,-0.56185 -9.03467,-1.26697 -1.61139,-0.35039 -4.64628,-0.26037 -7.1092,0.21087 -1.86061,0.35599 -2.09545,0.49779 -2.37617,1.43474 -0.51909,1.73256 -1.54648,1.95212 -3.7025,0.79125 -0.74403,-0.40061 -1.84736,-0.88942 -2.45184,-1.08625 l -1.09904,-0.35787 -1.55977,0.54496 c -0.85787,0.29973 -1.68796,0.64828 -1.84464,0.77456 -0.15668,0.12628 -0.75491,0.45363 -1.3294,0.72745 -0.5745,0.27382 -1.40251,0.77729 -1.84003,1.11883 -0.43752,0.34154 -1.33012,1.03884 -1.98356,1.54955 -0.65343,0.51072 -1.91924,1.27987 -2.8129,1.70924 l -1.62483,0.78067 h -2.84873 c -2.55683,0 -3.02386,-0.053 -4.55796,-0.51763 -0.94008,-0.2847 -2.3502,-0.61161 -3.1336,-0.72647 -0.7834,-0.11486 -1.97987,-0.3694 -2.65882,-0.56565 -0.67894,-0.19624 -2.34492,-0.49889 -3.70217,-0.67255 -2.90232,-0.37136 -4.36148,-0.21156 -6.33718,0.69402 -0.66456,0.30461 -1.3173,0.55383 -1.45053,0.55383 -0.13323,0 -0.67708,0.29912 -1.20855,0.6647 -0.53147,0.36559 -1.04575,0.66471 -1.14283,0.66471 -0.0971,0 -0.54783,0.30775 -1.00164,0.68389 -0.45381,0.37614 -1.15865,0.95301 -1.5663,1.28193 -0.40766,0.32892 -0.94635,0.79099 -1.19709,1.02682 -0.39912,0.3754 -1.00373,0.85034 -3.073743,2.41455 -0.272533,0.20594 -0.602389,0.51957 -0.733012,0.69695 -0.130623,0.17739 -0.663261,0.46394 -1.183639,0.63678 -0.792181,0.26312 -1.115866,0.27902 -1.989148,0.0977 -0.573653,-0.11909 -1.408406,-0.41049 -1.855006,-0.64756 -0.446599,-0.23707 -1.189574,-0.49116 -1.651054,-0.56464 -0.79019,-0.12582 -1.325291,-0.52206 -1.338931,-0.99147 -0.0033,-0.11432 0.20813,-0.45616 0.469893,-0.75966 0.261763,-0.30349 0.524017,-0.70171 0.582787,-0.88492 0.05877,-0.18322 0.309075,-0.43961 0.556233,-0.56975 0.247159,-0.13014 0.647234,-0.52987 0.889056,-0.88828 0.525313,-0.77857 1.2286,-1.01575 2.557979,-0.86266 0.610804,0.0703 1.026098,0.0362 1.104584,-0.0908 0.122581,-0.19834 1.32903,-1.04133 3.138798,-2.1932 0.49233,-0.31336 1.15866,-0.74067 1.480733,-0.94958 0.81821,-0.53072 1.66871,-1.05912 2.59834,-1.61428 1.47776,-0.8825 2.46868,-1.56608 3.70793,-2.5579 1.68487,-1.34847 1.73192,-1.36761 4.19154,-1.70466 2.94939,-0.40416 7.48955,-1.22346 8.53278,-1.53979 2.00426,-0.60773 3.96746,-1.37378 4.50915,-1.7595 0.32023,-0.22802 0.65958,-0.41459 0.7541,-0.41459 0.22431,0 1.78468,-1.84369 2.12969,-2.51638 0.14732,-0.28724 0.33615,-0.52226 0.41961,-0.52226 0.0835,0 0.26387,-0.21397 0.4009,-0.47549 0.13702,-0.26152 1.19015,-1.43662 2.34029,-2.61134 2.61475,-2.67062 3.48342,-4.251104 3.21376,-5.847204 l -0.12699,-0.75165 h -1.08997 c -1.21256,0 -4.4104,0.95556 -5.04888,1.50867 -0.20891,0.18097 -0.72168,0.5296 -1.1395,0.77473 -1.12166,0.658074 -1.77751,1.208204 -4.07012,3.414064 -3.50322,3.37064 -4.63409,4.34547 -6.93996,5.98233 -1.87986,1.33445 -3.78672,2.44793 -4.69021,2.73875 -0.38335,0.1234 -0.80047,0.34905 -0.92694,0.50144 -0.12648,0.15239 -0.71018,0.41534 -1.29712,0.58434 -0.58695,0.16899 -1.46884,0.50925 -1.95977,0.75613 -0.52165,0.26232 -1.67571,0.56648 -2.77698,0.73189 -1.03641,0.15567 -2.42944,0.41152 -3.095623,0.56856 -0.66618,0.15703 -2.031051,0.28678 -3.033043,0.28833 -1.528179,0.002 -1.951226,-0.0661 -2.624811,-0.42451 -0.441655,-0.23502 -0.946502,-0.66835 -1.121884,-0.96295 -0.306659,-0.51513 -0.302904,-0.54871 0.09803,-0.87664 0.365019,-0.29855 0.849525,-0.34355 3.893263,-0.36161 2.326355,-0.0138 3.790488,-0.10794 4.425938,-0.28457 3.04836,-0.84734 4.60667,-1.3394 4.97912,-1.57222 0.23163,-0.1448 0.8726,-0.44045 1.42436,-0.65701 0.55177,-0.21655 1.17413,-0.54825 1.38304,-0.7371 0.20891,-0.18885 0.67895,-0.4932 1.04454,-0.67633 0.36558,-0.18313 1.00655,-0.6187 1.42436,-0.96794 0.41781,-0.34923 1.01605,-0.84868 1.32941,-1.10987 0.31336,-0.2612 1.78814,-1.65169 3.2773,-3.08998 4.64631,-4.487594 6.99793,-6.519044 7.99998,-6.910784 0.24866,-0.0972 0.70473,-0.35663 1.01347,-0.57648 0.55223,-0.39322 2.74745,-1.24852 4.6117,-1.7968 1.09915,-0.32327 4.10502,-0.37527 5.52259,-0.0956 0.79752,0.15736 1.34037,0.1121 3.13361,-0.26131 1.19293,-0.2484 2.46809,-0.545 2.83368,-0.65911 1.48755,-0.46431 7.12458,-0.63632 12.96901,-0.39576 7.55515,0.31099 13.93771,0.0118 17.89222,-0.83855 3.52782,-0.75865 6.86844,-1.27372 10.54029,-1.62516 3.88127,-0.37147 5.55913,-0.63775 6.50266,-1.03198 0.3446,-0.14399 1.7951,-0.44006 3.22333,-0.65794 1.42822,-0.21788 2.80317,-0.47462 3.05544,-0.57053 0.25227,-0.0959 1.60319,-0.35752 3.00204,-0.58134 1.39884,-0.22382 3.22705,-0.60928 4.06268,-0.85657 0.83563,-0.24729 2.2303,-0.5905 3.09928,-0.76269 0.86898,-0.17219 1.85179,-0.42584 2.18403,-0.56366 0.33223,-0.13783 1.45868,-0.38576 2.50321,-0.55096 1.04454,-0.1652 2.71105,-0.46696 3.70335,-0.67057 0.99231,-0.20362 2.29879,-0.42914 2.90329,-0.50116 0.60449,-0.072 1.27385,-0.27246 1.48745,-0.44542 0.3629,-0.29386 0.36937,-0.35151 0.0987,-0.87933 -1.19064,-2.32214 -1.19308,-2.48577 -0.0409,-2.74561 0.6931,-0.15632 0.72829,-0.13582 1.95765,1.14045 1.14291,1.18652 1.36075,1.32657 2.50307,1.60919 3.05474,0.75578 5.26369,1.45401 5.89064,1.86201 2.34941,1.52887 2.91131,1.9582 3.48957,2.66626 0.35496,0.43462 0.81963,1.18571 1.0326,1.66909 0.54401,1.23474 2.47878,2.95069 4.70222,4.17044 0.41782,0.2292 1.25898,0.75511 1.86925,1.16867 1.06887,0.72435 1.10507,0.77597 0.98673,1.40679 -0.30286,1.61439 -2.20081,3.87865 -3.74206,4.46428 -1.86416,0.708324 -5.40345,0.328284 -8.13741,-0.87377 -1.15014,-0.50568 -1.9994,-0.72805 -3.37826,-0.88454 -3.0698,-0.34841 -9.07506,0.14641 -10.82659,0.89207 -0.38554,0.16414 -1.25648,0.47152 -1.93543,0.68307 -1.99461,0.621514 -3.49597,1.407624 -4.22099,2.210144 -0.69585,0.77022 -1.27693,2.31786 -1.32218,3.52147 -0.0259,0.68757 0.58758,2.11545 1.26044,2.93393 0.23022,0.28004 0.5687,0.89375 0.75219,1.36379 0.18348,0.47004 0.49478,1.11683 0.69177,1.43731 0.197,0.32048 0.48084,1.10852 0.63076,1.75119 0.27436,1.17609 0.74368,1.96079 1.482,2.47793 0.30192,0.21148 1.35551,0.31471 4.31358,0.42263 2.15275,0.0785 4.14083,0.23096 4.41796,0.3387 1.01206,0.39345 2.83457,0.60716 6.63125,0.77759 3.5214,0.15808 4.05324,0.22808 5.75499,0.7575 1.03127,0.32084 1.96144,0.58333 2.06704,0.58333 0.26253,0 3.05907,1.42217 4.22428,2.14825 0.52227,0.32544 1.41962,1.05577 1.99412,1.62295 0.57449,0.56718 1.3449,1.221 1.71202,1.45292 1.21694,0.76879 1.23313,0.82843 0.76943,2.83511 -0.44434,1.92288 -0.36174,1.8072 -2.55245,3.57454 -0.67008,0.54059 -2.02195,1.10529 -2.56422,1.07112 -0.16966,-0.0107 -0.57232,-0.0825 -0.89479,-0.15961 z m 2.66767,-4.67269 c 0.37996,-0.50244 0.36793,-0.55137 -0.21171,-0.86111 -0.27737,-0.14822 -0.95891,-0.83909 -1.51454,-1.53527 -0.75361,-0.94426 -1.16823,-1.29949 -1.63224,-1.39846 -0.34211,-0.073 -1.22025,-0.32594 -1.95142,-0.56215 -1.4393,-0.46497 -2.42591,-0.5857 -6.93191,-0.84824 -3.32308,-0.19361 -5.35906,-0.0485 -5.82254,0.41498 -0.28425,0.28425 -0.21403,0.35377 0.90552,0.89653 0.66752,0.32361 1.9401,0.97041 2.82795,1.43734 0.88786,0.46693 2.21252,1.01605 2.94369,1.22026 0.73117,0.2042 1.82473,0.54885 2.43012,0.76589 1.21995,0.43734 5.60585,0.95571 7.49128,0.88538 0.91975,-0.0343 1.24814,-0.12732 1.4658,-0.41515 z M 230.37258,87.734376 c 0.19609,-0.23626 0.19441,-0.37988 -0.009,-0.75966 -0.13785,-0.25757 -0.30722,-0.46831 -0.37637,-0.46831 -0.0692,0 -0.23852,0.21074 -0.37637,0.46831 -0.20325,0.37978 -0.20492,0.5234 -0.009,0.75966 0.13298,0.16024 0.30633,0.29135 0.3852,0.29135 0.0789,0 0.25221,-0.13111 0.3852,-0.29135 z"
       id="path47" />
    <rect
       style="fill:none;stroke:#000000;stroke-opacity:1"
       id="rect1"
       width="209.54581"
       height="107.46752"
       x="65.938774"
       y="55.477333" />
  </g>
</svg>
