<?xml version="1.0" encoding="UTF-8" standalone="no"?>
<!-- Created with Inkscape (http://www.inkscape.org/) -->

<svg
   width="520"
   height="880"
   viewBox="0 0 137.58333 232.83333"
   version="1.1"
   id="svg1"
   inkscape:version="1.3.2 (091e20e, 2023-11-25, custom)"
   sodipodi:docname="dog running cycle 8.svg"
   xmlns:inkscape="http://www.inkscape.org/namespaces/inkscape"
   xmlns:sodipodi="http://sodipodi.sourceforge.net/DTD/sodipodi-0.dtd"
   xmlns="http://www.w3.org/2000/svg"
   xmlns:svg="http://www.w3.org/2000/svg">
  <sodipodi:namedview
     id="namedview1"
     pagecolor="#ffffff"
     bordercolor="#000000"
     borderopacity="0.25"
     inkscape:showpageshadow="2"
     inkscape:pageopacity="0.0"
     inkscape:pagecheckerboard="0"
     inkscape:deskcolor="#d1d1d1"
     inkscape:document-units="px"
     showguides="true"
     inkscape:zoom="1.6290957"
     inkscape:cx="269.47466"
     inkscape:cy="434.59695"
     inkscape:window-width="1536"
     inkscape:window-height="890"
     inkscape:window-x="-6"
     inkscape:window-y="-6"
     inkscape:window-maximized="1"
     inkscape:current-layer="svg1">
    <sodipodi:guide
       position="68.791665,116.41666"
       orientation="-1,0"
       id="guide1"
       inkscape:locked="false"
       inkscape:label=""
       inkscape:color="rgb(0,134,229)" />
    <sodipodi:guide
       position="68.791665,116.41666"
       orientation="0,1"
       id="guide2"
       inkscape:locked="false"
       inkscape:label=""
       inkscape:color="rgb(0,134,229)" />
  </sodipodi:namedview>
  <defs
     id="defs1" />
  <g
     id="g2"
     transform="matrix(0.65294115,0,0,0.65294115,-42.673014,45.108247)"
     style="display:none">
    <path
       style="fill:#000000;stroke-width:0.189915"
       d="m 238.23212,128.67846 c -0.32248,-0.0771 -0.68929,-0.20381 -0.81513,-0.28158 -0.12585,-0.0778 -0.95121,-0.33432 -1.83414,-0.57009 -1.26386,-0.3375 -1.79742,-0.39466 -2.50839,-0.26872 -2.13328,0.37789 -3.0097,0.48454 -3.277,0.39879 -0.65577,-0.21037 -3.53039,-1.44261 -3.72803,-1.59806 -0.11803,-0.0928 -0.92992,-0.41451 -1.80419,-0.71484 -0.87428,-0.30033 -1.91761,-0.68725 -2.31852,-0.85982 -0.4009,-0.17257 -1.21279,-0.40109 -1.80419,-0.50782 -0.5914,-0.10673 -1.75897,-0.40021 -2.5946,-0.65218 -0.83563,-0.25197 -2.71579,-0.5875 -4.17814,-0.74563 -2.89732,-0.3133 -6.08679,-1.25042 -6.77691,-1.99117 -0.19784,-0.21236 -0.42568,-0.38611 -0.50631,-0.38611 -0.0806,0 -1.06879,-0.88818 -2.1959,-1.97375 -1.88208,-1.81269 -2.15752,-2.0079 -3.37562,-2.39234 -0.84683,-0.26726 -1.57794,-0.38183 -2.02232,-0.31689 -3.89513,0.56918 -5.75518,0.67988 -8.48251,0.50485 -1.79817,-0.11541 -3.54911,-0.3537 -4.74788,-0.64616 -1.04454,-0.25483 -2.61174,-0.56065 -3.48268,-0.67959 -0.87094,-0.11895 -2.13457,-0.38646 -2.80807,-0.59449 -1.75386,-0.54171 -5.92881,-1.11651 -8.11698,-1.11753 -1.7913,-8.4e-4 -5.79183,-0.56185 -9.03467,-1.26697 -1.61139,-0.35039 -4.64628,-0.26037 -7.1092,0.21087 -1.86061,0.35599 -2.09545,0.49779 -2.37617,1.43474 -0.51909,1.73256 -1.54648,1.95212 -3.7025,0.79125 -0.74403,-0.40061 -1.84736,-0.88942 -2.45184,-1.08625 l -1.09904,-0.35787 -1.55977,0.54496 c -0.85787,0.29973 -1.68796,0.64828 -1.84464,0.77456 -0.15668,0.12628 -0.75491,0.45363 -1.3294,0.72745 -0.5745,0.27382 -1.40251,0.77729 -1.84003,1.11883 -0.43752,0.34154 -1.33012,1.03884 -1.98356,1.54955 -0.65343,0.51072 -1.91924,1.27987 -2.8129,1.70924 l -1.62483,0.78067 h -2.84873 c -2.55683,0 -3.02386,-0.053 -4.55796,-0.51763 -0.94008,-0.2847 -2.3502,-0.61161 -3.1336,-0.72647 -0.7834,-0.11486 -1.97987,-0.3694 -2.65882,-0.56565 -0.67894,-0.19624 -2.34492,-0.49889 -3.70217,-0.67255 -2.90232,-0.37136 -4.36148,-0.21156 -6.33718,0.69402 -0.66456,0.30461 -1.3173,0.55383 -1.45053,0.55383 -0.13323,0 -0.67708,0.29912 -1.20855,0.6647 -0.53147,0.36559 -1.04575,0.66471 -1.14283,0.66471 -0.0971,0 -0.54783,0.30775 -1.00164,0.68389 -0.45381,0.37614 -1.15865,0.95301 -1.5663,1.28193 -0.40766,0.32892 -0.94635,0.79099 -1.19709,1.02682 -0.39912,0.3754 -1.00373,0.85034 -3.073743,2.41455 -0.272533,0.20594 -0.602389,0.51957 -0.733012,0.69695 -0.130623,0.17739 -0.663261,0.46394 -1.183639,0.63678 -0.792181,0.26312 -1.115866,0.27902 -1.989148,0.0977 -0.573653,-0.11909 -1.408406,-0.41049 -1.855006,-0.64756 -0.446599,-0.23707 -1.189574,-0.49116 -1.651054,-0.56464 -0.79019,-0.12582 -1.325291,-0.52206 -1.338931,-0.99147 -0.0033,-0.11432 0.20813,-0.45616 0.469893,-0.75966 0.261763,-0.30349 0.524017,-0.70171 0.582787,-0.88492 0.05877,-0.18322 0.309075,-0.43961 0.556233,-0.56975 0.247159,-0.13014 0.647234,-0.52987 0.889056,-0.88828 0.525313,-0.77857 1.2286,-1.01575 2.557979,-0.86266 0.610804,0.0703 1.026098,0.0362 1.104584,-0.0908 0.122581,-0.19834 1.32903,-1.04133 3.138798,-2.1932 0.49233,-0.31336 1.15866,-0.74067 1.480733,-0.94958 0.81821,-0.53072 1.66871,-1.05912 2.59834,-1.61428 1.47776,-0.8825 2.46868,-1.56608 3.70793,-2.5579 1.68487,-1.34847 1.73192,-1.36761 4.19154,-1.70466 2.94939,-0.40416 7.48955,-1.22346 8.53278,-1.53979 2.00426,-0.60773 3.96746,-1.37378 4.50915,-1.7595 0.32023,-0.22802 0.65958,-0.41459 0.7541,-0.41459 0.22431,0 1.78468,-1.84369 2.12969,-2.51638 0.14732,-0.28724 0.33615,-0.52226 0.41961,-0.52226 0.0835,0 0.26387,-0.21397 0.4009,-0.47549 0.13702,-0.26152 1.19015,-1.43662 2.34029,-2.61134 2.61475,-2.67062 3.48342,-4.251104 3.21376,-5.847204 l -0.12699,-0.75165 h -1.08997 c -1.21256,0 -4.4104,0.95556 -5.04888,1.50867 -0.20891,0.18097 -0.72168,0.5296 -1.1395,0.77473 -1.12166,0.658074 -1.77751,1.208204 -4.07012,3.414064 -3.50322,3.37064 -4.63409,4.34547 -6.93996,5.98233 -1.87986,1.33445 -3.78672,2.44793 -4.69021,2.73875 -0.38335,0.1234 -0.80047,0.34905 -0.92694,0.50144 -0.12648,0.15239 -0.71018,0.41534 -1.29712,0.58434 -0.58695,0.16899 -1.46884,0.50925 -1.95977,0.75613 -0.52165,0.26232 -1.67571,0.56648 -2.77698,0.73189 -1.03641,0.15567 -2.42944,0.41152 -3.095623,0.56856 -0.66618,0.15703 -2.031051,0.28678 -3.033043,0.28833 -1.528179,0.002 -1.951226,-0.0661 -2.624811,-0.42451 -0.441655,-0.23502 -0.946502,-0.66835 -1.121884,-0.96295 -0.306659,-0.51513 -0.302904,-0.54871 0.09803,-0.87664 0.365019,-0.29855 0.849525,-0.34355 3.893263,-0.36161 2.326355,-0.0138 3.790488,-0.10794 4.425938,-0.28457 3.04836,-0.84734 4.60667,-1.3394 4.97912,-1.57222 0.23163,-0.1448 0.8726,-0.44045 1.42436,-0.65701 0.55177,-0.21655 1.17413,-0.54825 1.38304,-0.7371 0.20891,-0.18885 0.67895,-0.4932 1.04454,-0.67633 0.36558,-0.18313 1.00655,-0.6187 1.42436,-0.96794 0.41781,-0.34923 1.01605,-0.84868 1.32941,-1.10987 0.31336,-0.2612 1.78814,-1.65169 3.2773,-3.08998 4.64631,-4.487594 6.99793,-6.519044 7.99998,-6.910784 0.24866,-0.0972 0.70473,-0.35663 1.01347,-0.57648 0.55223,-0.39322 2.74745,-1.24852 4.6117,-1.7968 1.09915,-0.32327 4.10502,-0.37527 5.52259,-0.0956 0.79752,0.15736 1.34037,0.1121 3.13361,-0.26131 1.19293,-0.2484 2.46809,-0.545 2.83368,-0.65911 1.48755,-0.46431 7.12458,-0.63632 12.96901,-0.39576 7.55515,0.31099 13.93771,0.0118 17.89222,-0.83855 3.52782,-0.75865 6.86844,-1.27372 10.54029,-1.62516 3.88127,-0.37147 5.55913,-0.63775 6.50266,-1.03198 0.3446,-0.14399 1.7951,-0.44006 3.22333,-0.65794 1.42822,-0.21788 2.80317,-0.47462 3.05544,-0.57053 0.25227,-0.0959 1.60319,-0.35752 3.00204,-0.58134 1.39884,-0.22382 3.22705,-0.60928 4.06268,-0.85657 0.83563,-0.24729 2.2303,-0.5905 3.09928,-0.76269 0.86898,-0.17219 1.85179,-0.42584 2.18403,-0.56366 0.33223,-0.13783 1.45868,-0.38576 2.50321,-0.55096 1.04454,-0.1652 2.71105,-0.46696 3.70335,-0.67057 0.99231,-0.20362 2.29879,-0.42914 2.90329,-0.50116 0.60449,-0.072 1.27385,-0.27246 1.48745,-0.44542 0.3629,-0.29386 0.36937,-0.35151 0.0987,-0.87933 -1.19064,-2.32214 -1.19308,-2.48577 -0.0409,-2.74561 0.6931,-0.15632 0.72829,-0.13582 1.95765,1.14045 1.14291,1.18652 1.36075,1.32657 2.50307,1.60919 3.05474,0.75578 5.26369,1.45401 5.89064,1.86201 2.34941,1.52887 2.91131,1.9582 3.48957,2.66626 0.35496,0.43462 0.81963,1.18571 1.0326,1.66909 0.54401,1.23474 2.47878,2.95069 4.70222,4.17044 0.41782,0.2292 1.25898,0.75511 1.86925,1.16867 1.06887,0.72435 1.10507,0.77597 0.98673,1.40679 -0.30286,1.61439 -2.20081,3.87865 -3.74206,4.46428 -1.86416,0.708324 -5.40345,0.328284 -8.13741,-0.87377 -1.15014,-0.50568 -1.9994,-0.72805 -3.37826,-0.88454 -3.0698,-0.34841 -9.07506,0.14641 -10.82659,0.89207 -0.38554,0.16414 -1.25648,0.47152 -1.93543,0.68307 -1.99461,0.621514 -3.49597,1.407624 -4.22099,2.210144 -0.69585,0.77022 -1.27693,2.31786 -1.32218,3.52147 -0.0259,0.68757 0.58758,2.11545 1.26044,2.93393 0.23022,0.28004 0.5687,0.89375 0.75219,1.36379 0.18348,0.47004 0.49478,1.11683 0.69177,1.43731 0.197,0.32048 0.48084,1.10852 0.63076,1.75119 0.27436,1.17609 0.74368,1.96079 1.482,2.47793 0.30192,0.21148 1.35551,0.31471 4.31358,0.42263 2.15275,0.0785 4.14083,0.23096 4.41796,0.3387 1.01206,0.39345 2.83457,0.60716 6.63125,0.77759 3.5214,0.15808 4.05324,0.22808 5.75499,0.7575 1.03127,0.32084 1.96144,0.58333 2.06704,0.58333 0.26253,0 3.05907,1.42217 4.22428,2.14825 0.52227,0.32544 1.41962,1.05577 1.99412,1.62295 0.57449,0.56718 1.3449,1.221 1.71202,1.45292 1.21694,0.76879 1.23313,0.82843 0.76943,2.83511 -0.44434,1.92288 -0.36174,1.8072 -2.55245,3.57454 -0.67008,0.54059 -2.02195,1.10529 -2.56422,1.07112 -0.16966,-0.0107 -0.57232,-0.0825 -0.89479,-0.15961 z m 2.66767,-4.67269 c 0.37996,-0.50244 0.36793,-0.55137 -0.21171,-0.86111 -0.27737,-0.14822 -0.95891,-0.83909 -1.51454,-1.53527 -0.75361,-0.94426 -1.16823,-1.29949 -1.63224,-1.39846 -0.34211,-0.073 -1.22025,-0.32594 -1.95142,-0.56215 -1.4393,-0.46497 -2.42591,-0.5857 -6.93191,-0.84824 -3.32308,-0.19361 -5.35906,-0.0485 -5.82254,0.41498 -0.28425,0.28425 -0.21403,0.35377 0.90552,0.89653 0.66752,0.32361 1.9401,0.97041 2.82795,1.43734 0.88786,0.46693 2.21252,1.01605 2.94369,1.22026 0.73117,0.2042 1.82473,0.54885 2.43012,0.76589 1.21995,0.43734 5.60585,0.95571 7.49128,0.88538 0.91975,-0.0343 1.24814,-0.12732 1.4658,-0.41515 z M 230.37258,87.734376 c 0.19609,-0.23626 0.19441,-0.37988 -0.009,-0.75966 -0.13785,-0.25757 -0.30722,-0.46831 -0.37637,-0.46831 -0.0692,0 -0.23852,0.21074 -0.37637,0.46831 -0.20325,0.37978 -0.20492,0.5234 -0.009,0.75966 0.13298,0.16024 0.30633,0.29135 0.3852,0.29135 0.0789,0 0.25221,-0.13111 0.3852,-0.29135 z"
       id="path47" />
    <rect
       style="fill:none;stroke:#000000;stroke-opacity:1"
       id="rect1"
       width="209.54581"
       height="107.46752"
       x="65.938774"
       y="55.477333" />
  </g>
  <g
     id="g3"
     transform="matrix(0.65294081,0,0,0.65294081,-189.04038,44.992775)"
     style="display:none">
    <path
       style="fill:#000000;stroke-width:0.189915"
       d="m 455.70166,141.23054 c -0.43573,-0.14168 -1.90104,-1.07786 -2.48184,-1.58564 -0.21603,-0.18886 -1.09447,-0.59948 -1.9521,-0.91247 -1.77006,-0.64599 -3.13071,-0.73102 -4.41982,-0.2762 -1.42015,0.50106 -2.05744,0.12092 -5.5798,-3.32835 -4.23764,-4.14971 -7.7734,-7.13413 -9.52852,-8.04271 -0.29534,-0.15289 -1.01471,-0.60719 -1.5986,-1.00954 -3.25938,-2.24604 -3.22998,-2.21944 -6.43625,-5.82371 -2.07482,-2.33239 -2.58933,-2.63112 -4.06384,-2.35959 -1.65319,0.30443 -6.45254,0.0577 -8.09452,-0.41609 -0.7834,-0.22606 -2.32172,-0.62225 -3.41848,-0.88041 -1.09676,-0.25817 -2.29322,-0.59379 -2.65881,-0.74582 -0.36559,-0.15202 -1.39113,-0.45564 -2.27898,-0.67469 -0.88786,-0.21905 -2.38344,-0.64352 -3.32352,-0.94327 -0.94008,-0.29974 -2.30747,-0.73428 -3.03865,-0.96565 -0.73117,-0.23136 -2.48314,-0.71372 -3.89326,-1.07191 -6.04195,-1.53473 -8.16163,-1.86129 -11.8697,-1.82866 -3.20497,0.0282 -4.35463,0.27874 -4.73674,1.03223 -0.12886,0.25411 -0.35769,0.71841 -0.50852,1.03177 -0.2194,0.45584 -0.41266,0.58137 -0.9667,0.62787 -0.56369,0.0473 -0.94777,-0.11163 -2.06512,-0.85462 -1.29234,-0.85935 -1.44591,-0.91274 -2.62507,-0.91274 -1.13801,0 -1.38255,0.0764 -2.67679,0.83623 -1.6431,0.96464 -3.8144,2.79228 -5.31763,4.47598 -1.8945,2.12196 -2.42731,2.50208 -4.10893,2.93143 -2.01022,0.51326 -4.40939,0.67805 -5.95658,0.40916 -0.67895,-0.118 -2.55911,-0.42581 -4.17814,-0.68402 -1.61902,-0.25821 -3.37099,-0.59181 -3.89326,-0.74133 -1.39364,-0.39899 -4.45265,-0.58101 -5.26404,-0.31323 -0.77146,0.2546 -2.16401,1.92492 -2.91081,3.49139 -0.2594,0.54412 -0.59398,1.20296 -0.74351,1.46409 -0.92309,1.61202 -2.60467,6.14479 -2.85345,7.69157 -0.0672,0.41781 -0.25558,1.13232 -0.41863,1.5878 -0.2869,0.80144 -0.31788,0.82466 -0.96099,0.7203 -0.89255,-0.14484 -1.29656,-0.55154 -1.74891,-1.76056 -0.48196,-1.28815 -0.37113,-1.91452 0.6103,-3.44897 0.7843,-1.22625 2.00579,-4.35798 2.17121,-5.56668 0.0648,-0.4738 -8.4e-4,-0.7757 -0.21541,-0.99028 -0.28497,-0.28497 -0.33735,-0.28002 -0.68174,0.0644 -0.20517,0.20517 -0.45331,0.37305 -0.55141,0.37305 -0.0981,0 -0.56611,0.32048 -1.04002,0.71218 -2.13004,1.76052 -2.81128,2.19625 -5.42865,3.47228 -1.07315,0.52319 -2.11976,0.86997 -3.12224,1.03451 -1.63536,0.26843 -2.28702,0.13774 -2.48917,-0.49918 -0.1691,-0.53279 0.59053,-1.68664 1.66941,-2.53577 1.28334,-1.01005 1.59284,-1.16024 2.68473,-1.30283 1.15834,-0.15127 1.95654,-0.62928 3.58019,-2.14404 0.70312,-0.65596 1.51501,-1.34132 1.8042,-1.52302 0.28919,-0.1817 0.84439,-0.59066 1.23376,-0.90879 1.59861,-1.30614 1.98095,-1.58498 2.61556,-1.90754 0.36559,-0.18582 0.94543,-0.58238 1.28854,-0.88126 0.34311,-0.29887 0.69188,-0.54341 0.77505,-0.54341 0.0832,0 0.26761,-0.21748 0.40987,-0.4833 0.39596,-0.73986 1.93159,-1.74974 2.87173,-1.88854 0.45488,-0.0672 3.47638,-0.18576 6.71443,-0.26356 l 5.88738,-0.14145 1.44546,-0.6761 c 0.79501,-0.37185 1.52015,-0.79397 1.61143,-0.93803 0.0913,-0.14407 0.1809,-1.28749 0.19915,-2.54093 0.0424,-2.91268 0.24762,-6.24197 0.44484,-7.21678 0.44713,-2.210005 1.37194,-5.308651 1.71431,-5.743908 0.50413,-0.640894 0.20819,-0.985108 -0.88374,-1.027894 -0.78491,-0.03076 -2.91753,0.879914 -4.37195,1.86691 -0.35463,0.240657 -0.90799,0.573671 -1.2297,0.740033 -0.32171,0.166362 -2.42233,2.137472 -4.66805,4.380239 -4.22997,4.22442 -5.91149,5.74028 -6.94916,6.26454 -0.33367,0.16858 -0.78149,0.46592 -0.99517,0.66077 -0.21367,0.19485 -0.76918,0.55575 -1.23445,0.80202 -0.46527,0.24626 -1.18779,0.62908 -1.6056,0.85071 -1.60661,0.85223 -3.27653,1.54364 -4.45459,1.84438 -0.67431,0.17213 -1.44347,0.42529 -1.70924,0.56256 -1.00493,0.51908 -7.36127,1.14982 -8.65251,0.8586 -0.3955,-0.0892 -0.89848,-0.3444 -1.11773,-0.56712 l -0.39864,-0.40493 0.43004,-0.35344 c 0.28204,-0.2318 0.87029,-0.39062 1.70924,-0.46147 4.2702,-0.36062 9.5075,-1.66945 12.29427,-3.07242 2.65755,-1.33791 3.98537,-2.41502 8.15884,-6.61837 1.45821,-1.468646 3.06852,-3.128571 3.57846,-3.688716 0.94971,-1.043204 3.42885,-3.276411 4.78533,-4.310631 1.49306,-1.138348 3.61908,-2.144771 5.52719,-2.616488 2.75828,-0.681893 3.2846,-0.723383 5.11886,-0.403514 1.48913,0.259682 1.81628,0.259956 3.10581,0.0026 0.79275,-0.158215 2.25325,-0.387082 3.24556,-0.508593 2.43855,-0.29861 13.97131,-0.304722 22.78983,-0.01208 5.34349,0.177325 9.8723,0.189162 18.13691,0.0474 10.51774,-0.180405 13.69818,-0.346967 14.8281,-0.776561 0.28018,-0.106527 1.56138,-0.364665 2.8471,-0.573639 1.28572,-0.208974 3.00521,-0.551495 3.82111,-0.761157 0.81589,-0.209662 2.38078,-0.513214 3.47754,-0.674559 1.09676,-0.161345 2.629,-0.457472 3.40498,-0.658058 0.79991,-0.206773 2.73255,-0.451402 4.46301,-0.564915 1.67868,-0.110116 3.43672,-0.259885 3.90676,-0.33282 1.01692,-0.157791 1.03209,-0.32694 0.17868,-1.991962 -0.47439,-0.925535 -0.52867,-1.166151 -0.34274,-1.519322 0.22137,-0.420478 0.52407,-0.696148 0.77039,-0.701593 0.0723,-0.0016 0.708,0.675307 1.41256,1.504238 1.45358,1.710159 1.77307,1.876206 4.73553,2.461168 3.71809,0.734165 3.89098,0.847669 8.15913,5.356698 0.73403,0.775459 1.75957,1.632319 2.27898,1.904132 0.51941,0.271813 1.54038,0.806232 2.26884,1.187598 1.81072,0.94796 2.75871,1.894432 2.75871,2.754276 0,1.61901 -2.55519,3.862768 -4.82776,4.239348 -1.52104,0.25204 -3.25866,0.009 -5.00619,-0.701606 -1.73608,-0.70547 -4.42132,-0.927523 -9.5374,-0.78868 -2.3502,0.0638 -4.78587,0.20707 -5.41259,0.31842 -1.37307,0.24396 -5.1747,1.471336 -5.32862,1.720386 -0.0603,0.0977 -0.46715,0.35874 -0.90399,0.58019 -0.79396,0.40249 -2.49229,1.71105 -2.92018,2.24999 -0.61121,0.76984 -0.69442,1.11872 -0.45632,1.91341 0.20016,0.66809 0.37225,0.84411 1.21776,1.24562 1.04273,0.49516 2.26171,1.17454 3.3586,1.87187 2.98294,1.89636 10.48709,5.80421 11.71445,6.1004 0.2943,0.071 1.00512,0.36261 1.57962,0.64797 0.57449,0.28537 1.34365,0.58198 1.70923,0.65915 0.36559,0.0772 1.15239,0.34367 1.74843,0.59223 0.98387,0.41029 1.98322,0.71151 5.89829,1.77779 1.90016,0.51752 9.82873,0.74272 11.41451,0.32422 0.61283,-0.16173 1.29896,-0.46759 1.52473,-0.6797 0.22577,-0.21209 0.77169,-0.51307 1.21316,-0.66883 0.78154,-0.27574 0.81043,-0.27133 1.09815,0.16779 0.44512,0.67934 0.16783,1.73528 -0.73811,2.81082 -1.08303,1.28579 -1.83744,1.47588 -5.30051,1.33557 -2.5805,-0.10456 -2.80447,-0.0838 -4.50511,0.41653 -1.48297,0.43633 -2.01248,0.50787 -3.09025,0.41752 -0.71534,-0.06 -1.57528,-0.25111 -1.91096,-0.42475 -1.49422,-0.77292 -5.62702,-1.96 -7.55925,-2.17128 -1.0874,-0.1189 -2.61807,-0.2981 -3.40147,-0.39821 -0.7834,-0.10012 -2.83448,-0.35488 -4.55796,-0.56615 -3.2761,-0.40158 -4.4783,-0.64861 -6.34416,-1.30361 -1.38427,-0.48595 -1.67591,-0.4903 -2.09136,-0.0312 -0.71108,0.78573 0.0689,2.05458 3.83489,6.23839 2.62372,2.91482 5.30502,5.84209 5.94113,6.48614 0.26723,0.27057 0.94737,1.00471 1.51143,1.63143 1.67385,1.85983 2.27818,2.20838 4.3603,2.51481 0.99481,0.14642 2.32151,0.46811 2.94823,0.71488 0.62672,0.24676 1.87233,0.57252 2.768,0.72389 1.94973,0.32952 4.06349,1.41296 5.15048,2.63996 0.66203,0.74731 0.68184,0.80599 0.35039,1.03815 -0.19322,0.13534 -0.8081,0.34169 -1.3664,0.45857 -0.5583,0.11687 -1.28157,0.3741 -1.60725,0.57161 -0.6059,0.36743 -1.0168,0.4156 -1.68683,0.19774 z m -1.44527,-50.615763 c 0.34772,-0.418985 -0.20165,-0.736617 -1.01132,-0.584721 -0.84828,0.159137 -1.0267,0.413482 -0.45181,0.644049 0.6454,0.258845 1.21835,0.235613 1.46313,-0.05933 z"
       id="path48" />
    <rect
       style="fill:none;stroke:#000000;stroke-opacity:1"
       id="rect1-2"
       width="209.54581"
       height="107.46752"
       x="290.10522"
       y="55.65424" />
  </g>
  <g
     id="g4"
     transform="matrix(0.65294081,0,0,0.65294081,-334.12069,44.961227)"
     style="display:none">
    <path
       style="fill:#000000;stroke-width:0.189915"
       d="m 620.49707,141.19609 c -2.05492,-0.12193 -2.41721,-0.19595 -3.06842,-0.6269 -0.99945,-0.66141 -1.22545,-1.41765 -1.11048,-3.71596 0.0801,-1.60204 0.16785,-1.96866 0.72222,-3.01898 0.5554,-1.05225 0.62681,-1.35179 0.59596,-2.49991 -0.0484,-1.8019 0.15202,-2.23681 1.78911,-3.88232 0.21817,-0.21929 0.80107,-0.86875 1.29534,-1.44324 0.49426,-0.5745 1.06783,-1.23196 1.2746,-1.46102 0.20677,-0.22907 0.83737,-1.12642 1.40133,-1.99411 0.56397,-0.8677 1.20065,-1.8048 1.41485,-2.08245 0.244,-0.31628 0.38946,-0.78928 0.38946,-1.26644 0,-0.65572 -0.0865,-0.81511 -0.62248,-1.14633 -0.34237,-0.2116 -1.09016,-0.8736 -1.66176,-1.47112 -0.95674,-1.00013 -1.40747,-1.58178 -2.73969,-3.53551 -1.25311,-1.83771 -4.06993,-4.07089 -5.80124,-4.59923 -0.47004,-0.14344 -1.18378,-0.40165 -1.58608,-0.57379 -0.98537,-0.42164 -3.80979,-0.62089 -4.20084,-0.29635 -0.17858,0.14822 -0.29037,0.55696 -0.29037,1.06176 0,0.5839 -0.12332,0.95779 -0.42731,1.29553 -0.42705,0.47446 -0.42816,0.47459 -1.85167,0.21948 -0.97632,-0.17497 -1.74559,-0.20339 -2.44556,-0.0904 -1.11764,0.18049 -1.52635,0.39816 -2.53339,1.34926 -0.58567,0.55313 -0.69648,0.80947 -0.88882,2.05627 -0.12087,0.7834 -0.35436,1.97987 -0.51889,2.65881 -0.16452,0.67895 -0.36298,1.53357 -0.44101,1.89915 -0.3411,1.59814 -0.67222,2.03559 -2.07579,2.74242 -1.63376,0.82274 -3.32885,1.04418 -6.47968,0.84646 -3.11321,-0.19535 -8.82602,-1.58174 -11.70874,-2.84148 -1.0519,-0.45968 -1.79724,-0.27108 -1.99852,0.50569 -0.15224,0.58752 0.52227,3.41783 1.33073,5.58386 1.0149,2.71912 1.60689,5.3799 1.62677,7.31174 0.027,2.61821 -0.0668,2.88486 -1.04727,2.97836 -0.75898,0.0724 -0.80974,0.0411 -1.54359,-0.95231 l -0.7588,-1.02715 0.12844,-1.82886 c 0.14122,-2.01084 -0.13318,-3.58589 -1.21193,-6.95656 -0.30087,-0.94008 -0.86545,-2.81444 -1.25462,-4.16523 -0.65998,-2.29075 -0.69988,-2.57325 -0.5931,-4.19894 0.10959,-1.66835 0.0949,-1.76134 -0.3432,-2.17292 l -0.45769,-0.42998 -0.62554,0.36533 c -0.34404,0.20093 -0.73146,0.57471 -0.86093,0.83061 -0.56525,1.11726 -1.2659,3.08027 -1.75904,4.92829 -1.69561,6.35423 -4.32613,9.60424 -7.54832,9.32597 -0.12816,-0.0111 -0.36837,-0.22671 -0.53381,-0.47921 -0.25041,-0.38216 -0.2649,-0.59693 -0.0865,-1.28192 0.17462,-0.67041 0.54625,-1.1395 2.00598,-2.53209 2.00262,-1.91049 1.78437,-1.45274 3.39563,-7.12182 0.34141,-1.20122 0.85209,-2.99591 1.13485,-3.98822 0.95235,-3.34219 1.47206,-4.4055 2.39395,-4.89798 0.66651,-0.35605 3.05192,-0.17638 4.45731,0.33574 0.62672,0.22837 1.86591,0.60815 2.75377,0.84394 1.45877,0.38743 2.54173,0.71395 5.12771,1.54603 1.11456,0.35863 1.38695,0.34623 1.92263,-0.0875 0.41663,-0.33736 0.43104,-0.41429 0.22322,-1.19131 -0.17436,-0.65192 -0.16556,-1.26167 0.0409,-2.83375 0.22878,-1.74199 0.22629,-2.17464 -0.0191,-3.31917 -0.15522,-0.72385 -0.35148,-2.1016 -0.43612,-3.06166 -0.0992,-1.12479 -0.27252,-1.926616 -0.48746,-2.254653 l -0.33357,-0.509084 -2.117,0.09513 c -1.6949,0.07617 -2.34419,0.191146 -3.25649,0.57668 -0.62672,0.264851 -1.41995,0.585787 -1.76273,0.713207 -0.34278,0.12741 -0.9314,0.47655 -1.30804,0.77587 -0.37664,0.29932 -0.76658,0.54422 -0.86653,0.54422 -0.15313,0 -1.4982,0.93012 -3.98229,2.75377 -2.23948,1.64407 -5.26491,3.71042 -5.62825,3.84405 -0.17378,0.0639 -0.57236,0.30421 -0.88572,0.53399 -0.31336,0.22978 -0.91159,0.52331 -1.32941,0.65228 -0.41781,0.12897 -1.10469,0.43162 -1.5264,0.67254 -0.42171,0.24093 -1.31906,0.57769 -1.99411,0.74836 -0.67505,0.17067 -1.74014,0.49481 -2.36686,0.72032 -1.02524,0.36891 -1.52986,0.41051 -5.03275,0.41493 l -3.89327,0.005 -2.18402,-0.73718 c -1.20121,-0.40545 -2.29085,-0.82068 -2.42142,-0.92273 -0.13057,-0.10206 -0.23739,-0.51393 -0.23739,-0.91528 0,-1.04094 0.48097,-1.26397 1.62984,-0.75577 3.17954,1.40646 10.99804,1.47098 13.84825,0.11428 2.60416,-1.23958 3.08844,-1.47752 3.70335,-1.81956 0.36558,-0.20335 0.96382,-0.58595 1.3294,-0.85022 1.28984,-0.93238 1.99994,-1.4232 2.53499,-1.75218 0.29748,-0.18291 1.11103,-0.80452 1.80789,-1.38135 1.19016,-0.98516 1.75129,-1.37464 4.37979,-3.039986 4.37487,-2.771812 8.65672,-4.013002 12.66302,-3.670665 1.52566,0.130367 2.56121,-0.11627 3.3033,-0.786743 0.26113,-0.235934 0.81663,-0.652193 1.23445,-0.925021 0.41781,-0.272828 1.2297,-0.83588 1.80419,-1.251227 0.5745,-0.415347 1.47184,-0.966549 1.99411,-1.224894 0.52227,-0.258345 1.16323,-0.59959 1.42437,-0.758322 0.44421,-0.270017 2.06377,-0.960162 3.62427,-1.544416 1.01006,-0.378166 4.6929,-0.848197 6.64588,-0.848197 2.07728,0 6.71801,0.489292 8.15163,0.859462 0.57449,0.148337 1.77096,0.450932 2.65881,0.672433 1.68591,0.420598 2.5705,0.690864 3.96805,1.212336 0.45895,0.171249 1.70101,0.433005 2.76014,0.58168 1.05913,0.148676 2.27192,0.392475 2.69508,0.541776 0.42317,0.149301 1.40312,0.368443 2.17766,0.486982 0.77455,0.118538 2.17742,0.460976 3.1175,0.760972 0.94008,0.299996 2.30747,0.716609 3.03865,0.925806 0.73117,0.209197 1.69492,0.516869 2.14166,0.683715 0.86836,0.324312 6.06414,1.143079 9.34821,1.473122 1.09676,0.110222 3.27604,0.152201 4.84284,0.09329 2.40754,-0.09053 3.2605,-0.211242 5.50754,-0.779438 1.46235,-0.369776 3.00066,-0.831979 3.41848,-1.027118 0.41781,-0.195139 1.26878,-0.502437 1.89104,-0.682885 0.62226,-0.180447 1.51961,-0.523863 1.99411,-0.763145 0.4745,-0.239282 1.21806,-0.49431 1.65235,-0.56673 0.43429,-0.07242 0.93533,-0.238213 1.11341,-0.368431 0.30235,-0.221081 0.29674,-0.286196 -0.0848,-0.983321 -0.22471,-0.410609 -0.58707,-1.029476 -0.80524,-1.37526 -0.31915,-0.505838 -0.36279,-0.746817 -0.22331,-1.233145 0.2468,-0.860542 0.69356,-0.848142 1.49735,0.04156 1.22825,1.359534 1.76872,1.584608 3.65633,1.522666 3.3268,-0.109171 3.95446,-0.03392 5.54303,0.664528 1.36839,0.60165 2.71278,1.463772 3.72981,2.391833 1.47116,1.342473 4.33923,2.750006 6.99472,3.432729 1.87915,0.483127 2.11592,0.609888 2.48987,1.333034 0.60522,1.170372 -0.14694,2.70931 -2.19584,4.49276 -1.42261,1.23829 -2.70272,1.56168 -6.18192,1.56168 -3.18193,0 -6.45273,0.45222 -8.44156,1.16714 -0.57449,0.20651 -1.64277,0.52836 -2.37394,0.71522 -1.3863,0.35429 -4.09642,1.60001 -4.96182,2.28074 -0.27609,0.21717 -0.59729,0.39506 -0.71377,0.39531 -0.11648,2.5e-4 -0.72455,0.342 -1.35127,0.75943 -3.24698,2.1627 -3.95574,2.73469 -6.83695,5.51769 -0.94008,0.90803 -2.4784,2.33113 -3.41848,3.16243 -0.94008,0.8313 -2.17928,1.95749 -2.75377,2.50266 -1.16933,1.10962 -3.12349,2.33319 -4.27431,2.67629 -1.12229,0.33459 -1.44324,0.64456 -1.5587,1.50532 l -0.10337,0.77068 0.9266,0.38384 c 0.50963,0.21111 1.14026,0.51183 1.40139,0.66828 0.26113,0.15644 1.50033,0.8472 2.75377,1.53501 3.19911,1.75549 3.99764,2.22314 4.39806,2.57568 0.1924,0.16939 0.69167,0.48885 1.10948,0.70991 0.41782,0.22106 1.27244,0.78814 1.89916,1.26018 0.62672,0.47204 1.60953,1.08236 2.18402,1.35627 0.5745,0.2739 1.17673,0.61165 1.33829,0.75056 0.16157,0.13891 1.22985,0.56041 2.37394,0.93667 2.63357,0.86611 5.33249,1.08961 6.8941,0.57093 0.94417,-0.3136 1.00784,-0.31235 1.59815,0.0314 0.71818,0.41824 0.9151,1.14333 0.41068,1.51217 -0.18433,0.13478 -0.4702,0.44963 -0.63526,0.69965 -0.16506,0.25002 -0.67141,0.76413 -1.12522,1.14246 -1.08121,0.90138 -1.8586,0.9098 -3.80391,0.0412 -0.79655,-0.35566 -1.93502,-0.79711 -2.52994,-0.981 -1.00865,-0.31177 -1.17452,-0.31396 -2.45729,-0.0325 -1.29813,0.28485 -1.41371,0.28231 -2.05193,-0.0451 -0.37197,-0.1908 -0.88997,-0.57937 -1.1511,-0.86348 -0.94199,-1.02487 -2.69716,-2.23207 -5.50754,-3.78807 -0.67895,-0.37591 -1.53357,-0.86377 -1.89915,-1.08414 -1.4894,-0.89777 -2.4221,-1.40128 -3.32352,-1.79418 -2.7934,-1.21753 -5.25513,-2.23407 -6.26721,-2.58797 -1.80297,-0.63047 -2.77191,-1.29061 -3.35766,-2.28757 -0.58646,-0.99817 -0.57088,-1.56777 0.0784,-2.86473 0.36903,-0.73718 0.36901,-0.73778 -0.0318,-1.13949 -0.34384,-0.34458 -0.6917,-0.41546 -2.43824,-0.49688 -1.72943,-0.0806 -2.15194,-0.041 -2.79684,0.26211 -0.41782,0.19638 -0.81608,0.45277 -0.88503,0.56974 -0.069,0.11698 -1.06861,1.36642 -2.22145,2.77654 -1.15285,1.41013 -2.33069,2.85078 -2.61742,3.20145 -0.28674,0.35068 -0.76187,0.99164 -1.05585,1.42437 -0.29398,0.43272 -0.79439,1.12862 -1.11203,1.54643 -0.9063,1.19213 -1.93838,2.70828 -2.4809,3.64452 -0.43318,0.74756 -0.47333,0.95139 -0.31233,1.58568 0.14461,0.56972 0.33513,0.79846 0.87691,1.05283 1.11677,0.52433 3.0661,2.04588 3.0661,2.39323 1e-5,0.7175 -0.36591,1.29459 -0.80243,1.2655 -0.23761,-0.0158 -1.48053,-0.091 -2.76204,-0.16703 z m 56.60746,-45.123938 c 0.066,-0.06596 0.0338,-0.280842 -0.0715,-0.477514 -0.18367,-0.343195 -0.20939,-0.3441 -0.63915,-0.02251 -0.3887,0.290859 -0.40642,0.352112 -0.1343,0.464165 0.41444,0.170659 0.69806,0.182695 0.8449,0.03586 z"
       id="path49" />
    <rect
       style="fill:none;stroke:#000000;stroke-opacity:1"
       id="rect1-2-5"
       width="209.54581"
       height="107.46752"
       x="512.30042"
       y="55.702557" />
  </g>
  <g
     id="g5"
     transform="matrix(0.65294081,0,0,0.65294081,-477.40286,44.953635)"
     style="display:none">
    <path
       style="fill:#000000;stroke-width:0.189915"
       d="m 856.41569,141.28178 c -0.6998,-0.3085 -1.56118,-1.05357 -3.34609,-2.89424 -1.56423,-1.61311 -2.72601,-2.64214 -3.32662,-2.94649 -1.37756,-0.69806 -1.63078,-1.35453 -1.38668,-3.595 0.10511,-0.96476 0.24518,-2.45916 0.31126,-3.3209 0.11675,-1.52232 0.10834,-1.5668 -0.29599,-1.5668 -0.22889,0 -0.89362,0.36321 -1.47718,0.80714 -1.53511,1.16778 -1.99604,1.50107 -2.93051,2.11907 -0.45929,0.30375 -1.17693,0.7839 -1.59474,1.067 -0.72843,0.49358 -1.11531,0.71065 -4.15414,2.3309 -2.8591,1.52442 -3.76625,1.69809 -7.70269,1.47462 -3.14081,-0.17831 -3.75914,-0.33984 -4.76076,-1.24366 -0.26113,-0.23563 -0.79436,-0.47674 -1.18496,-0.5358 -0.73312,-0.11083 -2.53995,-1.47224 -2.69557,-2.03105 -0.36463,-1.30933 -0.33782,-1.48877 0.26928,-1.80271 0.41317,-0.21366 1.18173,-0.31752 2.54364,-0.34374 l 1.95158,-0.0376 1.37751,1.22009 c 1.26674,1.12198 1.46004,1.22694 2.40387,1.30521 1.54321,0.12797 3.94207,-0.68163 5.86408,-1.97908 2.53686,-1.71252 5.72763,-4.28317 7.91578,-6.37737 1.74851,-1.67344 1.97616,-2.34201 1.05995,-3.11294 -0.61377,-0.51646 -0.89467,-0.88433 -2.52398,-3.30545 -1.64164,-2.43943 -2.03957,-3.06786 -2.43512,-3.84568 -0.62214,-1.2234 -2.84491,-3.30653 -4.35136,-4.078 -1.15862,-0.59335 -1.55487,-0.69978 -2.63559,-0.7079 -1.56985,-0.0118 -1.79967,0.16684 -1.47606,1.14737 0.22692,0.6876 0.21424,0.73499 -0.30809,1.15149 -0.29962,0.2389 -0.80284,0.48595 -1.11827,0.549 -1.09826,0.2195 -1.19686,0.28817 -1.29174,0.89965 -0.0652,0.42029 0.0321,0.81843 0.31171,1.27568 0.34565,0.56517 0.40652,0.9558 0.40652,2.60865 v 1.94395 l -0.95716,0.95758 c -0.78409,0.78444 -1.24768,1.05846 -2.56386,1.51549 -1.03643,0.35988 -1.99572,0.56021 -2.70278,0.56442 -0.85891,0.005 -1.25958,0.11472 -1.85167,0.50655 -0.41558,0.27501 -0.75559,0.57538 -0.75559,0.66749 0,0.0921 -0.27775,0.33682 -0.61722,0.5438 -1.15531,0.7044 -4.83996,0.42512 -6.61136,-0.50111 -1.18551,-0.61989 -2.11566,-0.767 -2.43288,-0.38477 -0.2028,0.24436 -0.11776,0.55405 0.51355,1.87025 1.34868,2.81187 2.12105,4.51308 2.12105,4.67184 0,0.46966 2.04144,3.17119 3.29106,4.35519 1.55474,1.47311 1.63884,1.74909 0.68357,2.24308 -0.76161,0.39384 -1.93033,0.3443 -2.87754,-0.12199 -0.86564,-0.42612 -1.54076,-1.36852 -3.18294,-4.443 -0.44633,-0.83563 -0.99923,-1.81844 -1.22867,-2.18403 -1.84028,-2.93236 -3.78119,-6.75225 -4.76485,-9.37768 -0.2682,-0.71583 -0.48886,-0.98568 -0.97061,-1.18697 -0.34293,-0.14329 -0.75281,-0.26052 -0.91086,-0.26052 -0.45102,0 -0.56304,0.879 -0.22492,1.76496 0.16769,0.43939 0.512,1.48259 0.76513,2.31822 0.25313,0.83563 0.67825,2.03669 0.94471,2.66902 0.73061,1.73384 0.96418,3.60871 0.70314,5.64419 -0.23978,1.86973 -0.64876,2.89443 -1.60705,4.02644 -0.76015,0.89796 -0.83806,0.86184 -2.00549,-0.93 -1.06783,-1.63896 -1.17966,-2.62738 -0.49182,-4.34673 0.58383,-1.45933 0.57654,-1.53453 -0.39895,-4.11923 -0.37451,-0.99231 -0.84478,-2.44516 -1.04506,-3.22856 -0.20027,-0.7834 -0.53066,-2.0226 -0.7342,-2.75377 -0.53767,-1.9315 -0.80771,-3.96285 -0.72392,-5.44572 0.0929,-1.64407 0.42858,-2.03353 1.88075,-2.18204 0.88615,-0.0906 1.39748,0.019 3.68763,0.79043 1.46234,0.4926 2.74427,0.96176 2.84872,1.04258 0.48358,0.37412 3.09522,1.33174 3.63196,1.33174 0.82981,0 1.14136,-0.97318 0.57924,-1.80942 -0.13849,-0.20603 -0.44617,-0.86266 -0.68373,-1.45916 -0.23756,-0.5965 -0.53828,-1.17282 -0.66828,-1.28071 -0.12999,-0.10788 -0.63235,-0.98723 -1.11635,-1.95409 -0.63079,-1.26009 -0.94048,-2.16132 -1.09354,-3.1823 -0.11744,-0.7834 -0.24872,-1.6151 -0.29173,-1.84822 -0.12169,-0.65957 -1.00888,-1.00139 -2.57964,-0.99388 -1.69237,0.008 -4.12185,0.42221 -4.73353,0.80686 -0.2481,0.15602 -0.77639,0.38687 -1.17397,0.51301 -0.88477,0.2807 -3.87346,1.792 -4.29108,2.16988 -0.16702,0.15113 -0.68946,0.44013 -1.16098,0.64223 -0.47152,0.20211 -0.96576,0.49814 -1.09831,0.65785 -0.13255,0.15971 -0.51591,0.40044 -0.85193,0.53495 -0.33601,0.13451 -0.95277,0.47385 -1.37058,0.75408 -0.41782,0.28023 -0.97332,0.5735 -1.23445,0.65171 -0.26114,0.0782 -0.9021,0.38138 -1.42437,0.67369 -0.52226,0.29232 -1.33367,0.63353 -1.80313,0.75825 -0.46945,0.12472 -1.17809,0.39234 -1.57475,0.5947 -0.39666,0.20236 -1.20903,0.45541 -1.80526,0.56234 -0.59624,0.10692 -1.81049,0.3713 -2.69834,0.5875 -2.212,0.53866 -5.09485,0.54045 -7.02687,0.004 -0.7834,-0.21737 -1.91057,-0.49175 -2.50483,-0.60973 -0.59426,-0.11799 -1.27834,-0.37016 -1.52018,-0.56039 -0.24184,-0.19023 -0.82391,-0.52989 -1.29347,-0.7548 -0.46957,-0.22491 -1.17324,-0.7827 -1.56371,-1.23954 l -0.70995,-0.83061 0.55847,-0.19468 c 0.45711,-0.15935 0.64191,-0.12905 1.0182,0.16694 0.25285,0.19889 1.21836,0.56893 2.14559,0.82231 0.92722,0.25337 2.04383,0.59532 2.48135,0.75988 1.96807,0.74025 7.62172,0.74281 9.61402,0.004 0.43752,-0.16217 1.43304,-0.50071 2.21227,-0.75232 0.77923,-0.25161 1.84751,-0.6636 2.37394,-0.91553 0.52644,-0.25193 1.34174,-0.63714 1.81178,-0.85603 0.47004,-0.21888 0.98281,-0.48279 1.13949,-0.58647 0.15668,-0.10368 0.75491,-0.40291 1.32941,-0.66497 1.34993,-0.61576 2.63649,-1.3484 3.09237,-1.76097 0.19857,-0.17971 0.75912,-0.55448 1.24567,-0.83283 2.17223,-1.24273 4.03983,-2.23288 4.43905,-2.35345 0.23859,-0.0721 0.9893,-0.370756 1.66825,-0.663777 1.69957,-0.733504 3.9315,-1.026005 6.69507,-0.877409 1.82145,0.09794 2.36073,0.0658 2.81204,-0.16758 0.30712,-0.158816 0.5584,-0.353959 0.5584,-0.433651 0,-0.301655 2.31577,-2.73688 3.59967,-3.785352 2.32376,-1.897643 2.89339,-2.327203 3.08606,-2.327203 0.10315,0 0.44154,-0.180866 0.75199,-0.401925 0.55851,-0.397692 3.15962,-1.560224 4.22263,-1.887247 0.94013,-0.289222 3.37133,-0.565234 5.08986,-0.577849 1.94342,-0.01427 6.53448,0.508782 7.74885,0.882809 0.47004,0.144772 1.8146,0.433833 2.9879,0.642358 1.17329,0.208525 2.36976,0.500247 2.65881,0.64827 0.28905,0.148023 1.19583,0.45202 2.01508,0.675547 0.81924,0.223527 1.7515,0.54188 2.07168,0.707451 0.32018,0.165571 1.17723,0.465945 1.90455,0.667497 0.72733,0.201553 1.57109,0.495053 1.87502,0.652223 0.30394,0.157171 1.21226,0.488456 2.01849,0.736191 1.87235,0.57532 4.37983,1.491768 5.81982,2.127056 0.88397,0.389987 1.59689,0.529459 3.32352,0.650203 1.29304,0.09042 2.70644,0.315959 3.43259,0.547739 1.59077,0.507755 4.47713,0.953996 6.17983,0.955422 1.42815,0.0012 3.03366,-0.344563 4.32495,-0.931412 2.21001,-1.004373 2.98646,-1.398789 4.1187,-2.0922 0.67894,-0.415803 1.49083,-0.879029 1.80419,-1.029392 1.20036,-0.575975 1.29706,-0.72558 1.03483,-1.600844 -0.36891,-1.231324 -0.14431,-1.375703 2.073,-1.332553 1.71733,0.03342 1.91764,-0.0044 3.25433,-0.614526 1.38257,-0.631058 1.49403,-0.649979 3.79831,-0.64475 l 2.37394,0.0054 1.44476,0.761738 c 0.79461,0.418956 1.77742,1.08699 2.18402,1.484521 2.01398,1.969063 3.66428,2.614975 7.54399,2.952653 2.09944,0.182729 2.46729,0.384518 2.81469,1.544039 0.43796,1.461789 -0.86407,4.086723 -2.58711,5.215703 -1.00487,0.65842 -2.8465,1.04372 -5.89281,1.23287 -3.85015,0.23907 -5.22992,0.45974 -6.3344,1.01308 -0.48531,0.24314 -1.22423,0.54972 -1.64204,0.6813 -0.41781,0.13158 -0.93058,0.38964 -1.13949,0.57346 -0.20891,0.18382 -0.67873,0.48555 -1.04406,0.67049 -2.16119,1.09412 -5.46193,3.6473 -8.9161,6.89675 -1.40441,1.32118 -2.93031,2.74398 -3.39089,3.16179 -0.46058,0.41782 -1.1171,1.01605 -1.45893,1.32941 -2.46338,2.25818 -5.75431,4.28503 -8.14229,5.01475 -1.10271,0.33696 -1.80019,0.39835 -4.55797,0.40121 -3.77668,0.004 -6.44339,0.24226 -7.02526,0.62789 -0.23191,0.15371 -0.59011,0.79503 -0.82752,1.48163 -0.43201,1.24935 -1.76533,6.35197 -1.76538,6.75612 -7e-5,0.471 1.16013,1.91196 2.72185,3.38052 3.09892,2.91407 3.67872,3.30919 5.51762,3.76013 1.13345,0.27795 1.7987,0.68315 1.81997,1.10855 0.003,0.0664 -0.273,0.25321 -0.61404,0.41504 -2.08775,0.9907 -3.33593,1.15005 -4.60977,0.58848 z m 38.42029,-46.54523 c -0.26345,-0.263449 -0.36583,-0.274719 -0.61524,-0.06773 -0.27145,0.225285 -0.26911,0.281555 0.0253,0.606822 0.29133,0.321917 0.35413,0.32883 0.61523,0.06773 0.2611,-0.261102 0.25852,-0.323044 -0.0253,-0.606822 z"
       id="path50" />
    <rect
       style="fill:none;stroke:#000000;stroke-opacity:1"
       id="rect1-2-5-0"
       width="209.54581"
       height="107.46752"
       x="731.7417"
       y="55.714184" />
  </g>
  <g
     id="g6"
     transform="matrix(0.65294081,0,0,0.65294081,-621.83544,44.953632)"
     style="display:none">
    <rect
       style="fill:none;stroke:#000000;stroke-opacity:1"
       id="rect1-2-5-3"
       width="209.54581"
       height="107.46752"
       x="952.94489"
       y="55.714188" />
    <path
       style="fill:#000000;stroke-width:0.189915"
       d="m 1047.6195,140.78003 c -0.2642,-0.1274 -0.506,-0.49659 -0.6322,-0.9651 -0.314,-1.16628 0.1379,-2.11634 1.6364,-3.44016 0.6779,-0.59886 1.1887,-1.15984 1.135,-1.24663 -0.054,-0.0868 -0.4795,-0.28795 -0.9463,-0.44702 -1.3167,-0.44864 -2.3161,-1.35713 -2.6721,-2.42907 -0.3077,-0.92634 -0.6728,-1.28849 -1.9862,-1.97036 -2.828,-1.46818 -3.0758,-1.62559 -5.7139,-3.62958 -1.7025,-1.29339 -3.7638,-3.29823 -4.2482,-4.13197 -0.8913,-1.5342 -0.1848,-2.90547 2.1756,-4.22256 1.6245,-0.90649 2.5664,-1.45601 3.2285,-1.88357 0.3656,-0.23607 1.1142,-0.5739 1.6636,-0.75072 0.5966,-0.19202 1.0859,-0.48404 1.2149,-0.72508 0.1188,-0.22197 0.3957,-0.54933 0.6154,-0.72745 0.2197,-0.17813 0.3432,-0.38028 0.2746,-0.44923 -0.069,-0.0689 -1.0667,-0.11948 -2.2178,-0.11231 -2.4645,0.0154 -3.7886,-0.32317 -5.3335,-1.36358 -1.9064,-1.28382 -3.6086,-3.95421 -4.2723,-6.70207 -0.2408,-0.9968 -0.4937,-1.52463 -0.9902,-2.06663 l -0.6669,-0.72792 -1.8129,0.13308 c -0.9971,0.0732 -2.0381,0.21879 -2.3132,0.32356 -0.2752,0.10477 -1.3465,0.40454 -2.3808,0.66615 -1.0343,0.26161 -2.0598,0.58701 -2.279,0.7231 -0.2191,0.1361 -0.8257,0.40124 -1.348,0.58921 -0.5223,0.18796 -1.167,0.49069 -1.4328,0.67273 -0.2658,0.18204 -0.9495,0.55673 -1.5193,0.83265 -0.5699,0.27592 -1.3842,0.68856 -1.8096,0.91698 -1.0727,0.57596 -1.3599,0.71976 -2.6523,1.32789 -0.6227,0.29303 -1.5595,0.73483 -2.0818,0.98179 -0.5222,0.24696 -1.3341,0.54706 -1.8042,0.66688 -0.47,0.11983 -1.4672,0.42581 -2.2159,0.67998 -1.1865,0.40278 -1.7029,0.46211 -4.0226,0.46211 -2.60037,0 -2.71467,-0.0176 -5.00057,-0.77089 -1.2866,-0.42398 -2.51031,-0.92693 -2.71938,-1.11766 -0.20907,-0.19073 -0.5597,-0.40106 -0.77917,-0.46739 -0.52612,-0.15903 -2.23659,-1.49585 -3.4285,-2.67955 -0.87993,-0.87387 -0.94111,-0.99297 -0.79387,-1.54531 l 0.15954,-0.59847 0.84379,0.25395 c 1.0347,0.31139 1.62397,0.61648 1.62397,0.84079 0,0.0931 0.44867,0.39202 0.99705,0.66422 0.54838,0.2722 1.29618,0.65692 1.66176,0.85494 3.14801,1.70507 5.00371,2.07959 8.68188,1.75211 1.2413,-0.11052 2.5945,-0.32732 3.0072,-0.48179 2.7332,-1.02299 3.4414,-1.31975 3.6941,-1.5481 0.1567,-0.14158 0.6694,-0.43724 1.1395,-0.65703 0.47,-0.21979 1.4528,-0.73689 2.184,-1.14911 0.7312,-0.41222 1.7696,-0.96731 2.3076,-1.23352 0.538,-0.26622 1.0935,-0.62367 1.2344,-0.79433 0.141,-0.17066 0.7263,-0.5176 1.3008,-0.77097 0.5745,-0.25337 1.1728,-0.57515 1.3294,-0.71507 0.2943,-0.26283 2.1608,-1.01878 3.9883,-1.615305 1.4698,-0.479789 6.4049,-1.023091 7.901,-0.869814 1.4243,0.145922 2.0853,-0.11032 2.7608,-1.070213 0.9762,-1.38707 3.8799,-4.351759 5.1336,-5.241383 1.2451,-0.883585 4.1347,-2.248682 5.4971,-2.596962 0.6668,-0.170475 1.8107,-0.496268 2.5418,-0.723985 1.1709,-0.364654 1.7145,-0.410017 4.558,-0.380372 2.1894,0.02283 3.6259,0.130207 4.463,0.333625 0.6789,0.164981 1.9181,0.43432 2.7538,0.598532 0.8356,0.164211 2.0321,0.466319 2.6588,0.67135 0.6267,0.205031 1.9086,0.6213 2.8487,0.925043 3.3533,1.083468 5.6508,1.894383 5.8624,2.069169 0.1182,0.09763 0.7704,0.319361 1.4494,0.492743 0.6789,0.173382 1.6617,0.512583 2.184,0.753781 0.6614,0.305452 1.6124,0.503969 3.1336,0.654131 1.2012,0.118574 3.0386,0.299198 4.0832,0.401388 1.0445,0.10219 2.3692,0.312703 2.9436,0.467807 0.5745,0.155104 1.8618,0.384215 2.8607,0.509135 1.585,0.198214 2.0322,0.184362 3.5135,-0.108804 0.9335,-0.184762 1.7827,-0.405472 1.8872,-0.490465 0.1044,-0.08499 0.7667,-0.385092 1.4718,-0.666886 0.7051,-0.281795 1.2819,-0.580286 1.2819,-0.663314 0,-0.08303 0.3016,-0.328867 0.6701,-0.546307 0.4483,-0.26449 0.7962,-0.689708 1.0513,-1.28468 0.4612,-1.075901 0.7362,-1.304405 2.0421,-1.69681 1.2402,-0.372644 1.9916,-0.829107 3.5113,-2.133121 1.6312,-1.399585 2.2262,-1.665349 4.5923,-2.050864 2.0644,-0.33638 2.0661,-0.336339 3.6892,0.09363 1.5507,0.410794 2.014,0.637603 4.2469,2.078946 1.5131,0.976694 3.9815,1.709041 6.8237,2.024473 1.652,0.183348 2.5904,0.373747 2.8067,0.569458 0.5718,0.517516 0.7846,1.620225 0.5537,2.869259 -0.2288,1.237861 -0.4345,1.720831 -0.9399,2.206417 -0.1859,0.178624 -0.4521,0.479693 -0.5915,0.669045 -0.3186,0.432726 -2.1102,1.712152 -2.7847,1.988638 -0.2791,0.1144 -2.1739,0.266175 -4.2107,0.337275 -3.186,0.11122 -3.8228,0.1848 -4.558,0.52659 -0.4701,0.21852 -1.1351,0.50088 -1.4779,0.62748 -0.3427,0.1266 -0.9115,0.45371 -1.2638,0.72692 -0.3523,0.2732 -0.8837,0.64686 -1.1809,0.83034 -0.6161,0.38032 -2.1466,1.48492 -3.2218,2.32521 -1.0415,0.81398 -3.2325,3.05813 -5.5623,5.69736 -3.6463,4.13051 -7.5844,7.88158 -8.2745,7.88158 -0.1201,0 -0.4639,0.25639 -0.7641,0.56975 -0.3002,0.31336 -0.6367,0.57082 -0.7477,0.57215 -0.111,10e-4 -0.7048,0.25744 -1.3195,0.56915 -1.9674,0.99772 -3.3856,1.15916 -8.663,0.98614 -4.9049,-0.1608 -5.2165,-0.12497 -5.9487,0.68413 -0.1899,0.20985 -0.4749,0.88093 -0.6332,1.49128 -0.1583,0.61035 -0.4448,1.36612 -0.6367,1.67948 -0.1919,0.31336 -0.4828,1.14843 -0.6465,1.85572 -0.1637,0.70729 -0.4586,1.60464 -0.6552,1.99411 -0.1967,0.38947 -0.5041,1.2209 -0.6833,1.84762 -0.1791,0.62672 -0.5745,1.51736 -0.8786,1.97919 -0.3042,0.46184 -0.5531,0.89543 -0.5531,0.96354 0,0.17477 -2.4209,1.78862 -3.276,2.18392 -0.3917,0.18107 -0.7122,0.39196 -0.7122,0.46865 0,0.40382 -2.7462,1.20854 -3.9882,1.16866 -1.175,-0.0377 -3.4824,-0.51769 -4.7916,-0.9967 -0.5986,-0.219 -1.1968,-0.34612 -1.3294,-0.28248 -0.1327,0.0636 -0.6685,0.36769 -1.1908,0.67569 -0.5222,0.30799 -1.3768,0.78988 -1.8991,1.07085 -0.5223,0.28098 -1.5165,1.01225 -2.2094,1.62505 -1.3053,1.15428 -1.4896,1.22796 -2.2067,0.88214 z m 15.4312,-6.72331 c 1.8712,-0.86319 2.8518,-2.13666 3.3287,-4.32304 0.5353,-2.45396 0.5361,-2.63376 0.012,-2.89609 -0.4345,-0.21761 -0.6074,-0.0794 -3.468,2.77061 l -3.0107,2.99964 0.1522,0.73224 c 0.1334,0.64218 0.2446,0.75989 0.9041,0.95711 0.7868,0.23529 1.138,0.19472 2.0814,-0.24047 z m -7.0009,-3.42031 c 1.213,-0.71084 5.4236,-4.96027 8.4342,-8.5119 0.4385,-0.51732 1.0005,-1.10039 1.2488,-1.29572 0.6042,-0.47525 0.628,-1.63122 0.044,-2.1498 -0.224,-0.19899 -0.6127,-0.7891 -0.8639,-1.31136 -1.4883,-3.09475 -3.2465,-5.32434 -5.507,-6.98376 -1.7386,-1.27625 -3.09,-1.62124 -3.482,-0.8889 -0.1717,0.32083 -0.088,0.60321 0.4795,1.61797 0.8264,1.47779 1.1042,3.42757 0.62,4.35169 -0.453,0.86467 -4.6411,5.31262 -6.1275,6.50767 -1.2563,1.01011 -2.2747,1.81075 -3.3226,2.61211 -1.728,1.32157 -1.6881,1.27172 -1.5745,1.96978 0.074,0.45659 0.2669,0.72912 0.671,0.94958 0.3118,0.17006 0.8484,0.56558 1.1925,0.87894 0.8438,0.76843 5.6222,2.69006 6.7981,2.73382 0.2947,0.011 0.9199,-0.20508 1.3892,-0.48012 z m -13.5194,-7.71376 c 0.323,-0.33948 0.75,-0.70798 0.9489,-0.81889 0.6272,-0.34979 0.1527,-0.65296 -1.0219,-0.65296 -0.6075,0 -1.3716,0.0534 -1.698,0.1187 -0.5519,0.11038 -0.5935,0.17472 -0.5935,0.91792 0,0.43958 0.057,0.85621 0.1266,0.92584 0.07,0.0696 0.4695,0.12661 0.8886,0.12661 0.6126,0 0.8771,-0.121 1.3493,-0.61722 z"
       id="path51" />
  </g>
  <g
     id="g7"
     transform="matrix(0.65294081,0,0,0.65294081,-43.048175,-38.088531)"
     style="display:none">
    <rect
       style="fill:none;stroke:#000000;stroke-opacity:1"
       id="rect1-2-5-3-6-72"
       width="209.54581"
       height="107.46752"
       x="66.513435"
       y="182.89595" />
    <path
       style="fill:#000000;stroke-width:0.189915"
       d="m 190.38867,267.38862 c -0.37865,-0.13018 -0.83236,-0.36358 -1.00824,-0.51868 -0.51958,-0.45817 -2.79797,-1.45012 -3.77903,-1.64528 -0.49984,-0.0994 -1.72069,-0.27476 -2.713,-0.38962 -0.99231,-0.11485 -3.17158,-0.54484 -4.84284,-0.95552 -4.33226,-1.06459 -5.9047,-1.90119 -6.3803,-3.39458 -0.24328,-0.7639 -1.07532,-1.73168 -2.07093,-2.40878 -0.36559,-0.24863 -0.87153,-0.60124 -1.12433,-0.78357 -0.41799,-0.30149 -0.98261,-0.32595 -6.23358,-0.27001 -5.27687,0.0562 -5.80547,0.033 -6.13993,-0.26969 -0.20129,-0.18216 -0.36597,-0.4859 -0.36597,-0.67498 0,-0.73519 2.77127,-3.20574 3.59594,-3.20574 0.21099,0 0.95123,0.21366 1.645,0.47479 1.11346,0.4191 1.55387,0.47445 3.75517,0.47188 1.37157,-0.002 2.58866,-0.0657 2.70466,-0.14243 0.39586,-0.26191 0.83363,-1.35389 0.83363,-2.07941 0,-2.216 -2.77307,-6.02739 -4.88148,-6.70924 -0.39656,-0.12824 -1.06286,-0.42747 -1.48068,-0.66494 -0.41781,-0.23748 -1.27243,-0.53496 -1.89915,-0.66107 -0.62672,-0.12612 -1.43861,-0.37814 -1.80419,-0.56006 -0.36559,-0.18192 -1.27997,-0.51502 -2.03195,-0.74022 -0.75199,-0.2252 -1.42373,-0.50085 -1.49277,-0.61255 -0.069,-0.1117 -0.50232,-0.36461 -0.96284,-0.56202 -1.12614,-0.48271 -3.21091,-2.17148 -4.54505,-3.68169 -1.24046,-1.40418 -2.49724,-3.58859 -2.66374,-4.62988 -0.13982,-0.87434 -0.35595,-1.16394 -1.29842,-1.73976 -0.67184,-0.41047 -0.96175,-0.45573 -2.94369,-0.45955 -1.62851,-0.003 -2.37978,0.0761 -2.89789,0.30578 -0.38469,0.1705 -1.32477,0.4835 -2.08907,0.69556 -0.76429,0.21206 -2.71429,1.06268 -4.33331,1.89025 -9.90026,5.0606 -9.88929,5.05666 -14.05373,5.05456 -2.82099,-10e-4 -4.44512,-0.27142 -5.6025,-0.93133 -0.41782,-0.23823 -0.97332,-0.4967 -1.23445,-0.57436 -1.2276,-0.36513 -4.89174,-3.77046 -5.801,-5.39126 -0.25642,-0.45708 -0.46622,-1.11941 -0.46622,-1.47184 0,-0.63184 0.0118,-0.64078 0.84576,-0.64078 0.69774,0 0.90548,0.0867 1.18698,0.49544 0.65001,0.9438 3.38326,3.53411 4.13369,3.91751 0.41461,0.21183 0.9719,0.54637 1.23842,0.74341 0.484,0.35784 4.43986,1.49067 5.20544,1.49067 0.22257,0 1.51438,-0.25335 2.87069,-0.563 2.67635,-0.61102 3.53014,-0.99769 9.77776,-4.42825 2.7711,-1.5216 4.81932,-2.43576 6.03098,-2.69173 0.70442,-0.14881 1.62261,-0.42484 2.04042,-0.6134 1.13229,-0.51099 6.56472,-0.50258 7.42049,0.0115 0.57234,0.34381 0.5987,0.34279 1.37411,-0.0528 0.43481,-0.22182 0.93616,-0.63724 1.11412,-0.92314 0.8623,-1.38539 4.73174,-5.45908 6.06065,-6.38054 2.84203,-1.97067 4.99329,-3.15437 6.72551,-3.7006 1.23805,-0.39041 4.26467,-0.78755 5.98233,-0.78499 2.34778,0.004 6.42249,0.67086 8.0714,1.32193 0.47004,0.1856 1.52896,0.48607 2.35317,0.66771 0.8242,0.18164 1.84974,0.48438 2.27898,0.67276 0.42924,0.18838 1.79332,0.52554 3.03131,0.74923 1.23798,0.2237 2.47718,0.49313 2.75377,0.59872 1.27025,0.48494 11.57513,1.40336 13.79696,1.22965 2.79724,-0.21869 4.91717,-0.76652 6.12669,-1.58324 1.96367,-1.32595 3.06535,-2.37546 3.88346,-3.69957 0.63056,-1.02056 1.39179,-1.55207 2.83798,-1.98154 0.95958,-0.28496 1.29807,-0.50112 2.96654,-1.89446 0.38938,-0.32516 1.34892,-0.92294 2.13232,-1.32838 1.3913,-0.72006 1.47066,-0.7371 3.41848,-0.73399 1.95791,0.003 2.02388,0.0178 3.63447,0.80835 0.90219,0.44285 1.7511,0.9386 1.88644,1.10169 0.13535,0.16309 0.59104,0.4725 1.01263,0.68758 0.4216,0.21508 0.98282,0.54504 1.24716,0.73325 0.28639,0.20391 1.90041,0.62579 3.99404,1.04398 2.54838,0.50902 3.62867,0.80646 3.93298,1.08287 1.05367,0.95709 0.57071,3.52641 -1.01086,5.37766 -0.71896,0.84155 -1.23114,1.2201 -2.32561,1.71887 -1.3725,0.62546 -1.46091,0.63971 -3.99121,0.64293 -2.76674,0.004 -4.86596,0.33101 -5.70048,0.8893 -0.27255,0.18233 -0.91117,0.52669 -1.41917,0.76523 -0.50801,0.23855 -1.17689,0.64682 -1.48642,0.90727 -0.30953,0.26045 -0.64866,0.47355 -0.75364,0.47355 -0.29679,0 -2.81748,2.05905 -4.49572,3.67236 -0.74792,0.71899 -1.5706,1.80959 -2.59601,3.44148 -0.20891,0.33246 -0.57594,0.85484 -0.81563,1.16085 -0.23969,0.306 -0.83717,1.06914 -1.32774,1.69586 -4.81454,6.15081 -9.2857,9.50489 -12.95489,9.71822 -2.69696,0.1568 -2.81655,0.31179 -1.83918,2.38364 0.3586,0.76017 0.79651,1.88455 0.97314,2.49863 0.17663,0.61408 0.49849,1.35639 0.71525,1.64958 0.2259,0.30553 0.43362,0.94418 0.48666,1.49624 0.1169,1.21658 -0.14908,1.62443 -2.93704,4.50355 -1.69984,1.75543 -2.19474,2.15694 -2.88537,2.34091 -0.84757,0.22578 -6.94936,0.15792 -8.76788,-0.0975 -0.67351,-0.0946 -0.92229,-0.053 -1.12195,0.18757 -0.1531,0.18447 -0.18705,0.37734 -0.0842,0.4783 0.0948,0.0931 1.4543,0.30642 3.0211,0.47416 1.5668,0.16773 3.19057,0.38489 3.60839,0.48257 0.41781,0.0977 1.72191,0.38918 2.89799,0.64778 2.70238,0.59421 3.12298,0.7962 3.3959,1.63092 0.27876,0.85256 0.096,1.17446 -0.91725,1.61521 -0.45027,0.19587 -1.05249,0.51527 -1.33826,0.70977 -0.74105,0.50438 -2.24279,0.70581 -3.09019,0.41449 z m -1.42298,-9.66624 c 0.57449,0.004 1.38638,0.075 1.80419,0.15762 0.6514,0.12885 0.85439,0.0812 1.42437,-0.33421 0.36558,-0.26646 0.96835,-0.69105 1.33948,-0.94353 0.43057,-0.29293 0.76218,-0.7245 0.91628,-1.19248 0.21192,-0.64357 0.19642,-0.83843 -0.12656,-1.59072 -0.20244,-0.47152 -0.50234,-0.96875 -0.66646,-1.10495 -0.16411,-0.1362 -0.48366,-0.60311 -0.71012,-1.03757 -0.22645,-0.43446 -0.61663,-1.03342 -0.86705,-1.33104 -0.25042,-0.29761 -0.45532,-0.64663 -0.45532,-0.7756 0,-0.12897 -0.15228,-0.40017 -0.3384,-0.60266 -0.18612,-0.20249 -0.54037,-0.69745 -0.78724,-1.09991 -0.542,-0.88361 -1.41422,-1.4506 -2.23299,-1.45157 -0.74432,-8.7e-4 -1.26165,0.22002 -2.24387,0.95809 -1.27217,0.95595 -4.08631,2.83951 -4.24239,2.83951 -0.0807,0 -0.43325,0.21132 -0.78332,0.46959 -0.35008,0.25828 -1.21785,0.69174 -1.92838,0.96325 -0.85595,0.32708 -1.49002,0.71932 -1.87905,1.16241 -0.5736,0.65328 -0.58422,0.70017 -0.45943,2.02791 0.14503,1.5431 0.53337,2.14509 1.48894,2.30806 0.32277,0.0551 1.99697,0.13079 3.72045,0.16831 2.10486,0.0458 3.44535,0.16408 4.08318,0.36023 0.52284,0.16079 1.16295,0.23582 1.42437,0.16696 0.26113,-0.0688 0.94482,-0.12175 1.51932,-0.1177 z m -9.52293,-11.26117 c 1.73479,-1.9721 1.84776,-2.34497 1.00453,-3.31558 -0.29807,-0.34311 -0.77059,-0.96569 -1.05003,-1.3835 -1.04851,-1.56767 -1.50699,-2.12273 -2.78161,-3.36757 -1.02293,-0.99903 -1.47066,-1.30434 -2.04822,-1.39669 -0.57285,-0.0916 -0.76495,-0.0509 -0.85393,0.18099 -0.0632,0.16455 0.007,0.42124 0.15642,0.57042 0.14918,0.14918 0.48907,0.84997 0.75532,1.55732 0.26625,0.70736 0.575,1.39564 0.68611,1.52952 0.32814,0.39539 1.11577,4.61773 1.11794,5.99304 0.002,1.16298 0.0376,1.27585 0.4293,1.35429 0.83083,0.16638 1.05315,0.0182 2.58417,-1.72224 z m 46.70382,-31.41564 c 0.25525,-0.25525 -0.0251,-0.72619 -0.43229,-0.72619 -0.4072,0 -0.68754,0.47094 -0.43229,0.72619 0.12286,0.12286 0.31739,0.22338 0.43229,0.22338 0.1149,0 0.30943,-0.10052 0.43229,-0.22338 z"
       id="path56" />
  </g>
  <g
     id="g8"
     transform="matrix(0.65294081,0,0,0.65294081,-189.10153,-38.152464)"
     style="display:none">
    <rect
       style="fill:none;stroke:#000000;stroke-opacity:1"
       id="rect1-2-5-3-6-3"
       width="209.54581"
       height="107.46752"
       x="290.19888"
       y="182.99387" />
    <path
       style="fill:#000000;stroke-width:0.189915"
       d="m 373.33942,268.1642 c -2.59221,-0.13637 -2.88689,-0.27853 -3.80563,-1.83581 -0.35314,-0.59858 -0.79555,-1.34048 -0.98314,-1.64869 -0.51593,-0.84768 -2.94857,-3.21886 -6.03955,-5.88699 -2.96997,-2.56367 -3.2579,-2.89103 -3.57345,-4.06292 -0.39906,-1.482 0.49131,-2.90645 2.95842,-4.733 0.54078,-0.40037 2.61994,-1.24568 5.09649,-2.07206 3.00704,-1.00338 5.09061,-1.96145 5.77505,-2.65547 l 0.68207,-0.69162 -0.6647,-0.5743 c -0.36559,-0.31586 -1.07194,-0.85289 -1.56966,-1.19339 -0.89468,-0.61206 -2.07401,-2.04263 -2.7515,-3.33766 -0.19214,-0.36727 -0.78369,-1.22744 -1.31455,-1.91148 -1.25846,-1.62156 -1.43771,-2.00643 -1.9553,-4.19829 -0.32703,-1.38487 -0.40356,-2.11269 -0.30952,-2.94369 0.0687,-0.60716 0.17424,-1.57823 0.2345,-2.15792 l 0.10957,-1.05399 -0.68477,-0.21016 c -0.37663,-0.11559 -0.87707,-0.16747 -1.11209,-0.11529 -1.41134,0.31336 -4.23653,1.36184 -5.44742,2.02164 -2.22121,1.2103 -2.83899,1.65026 -6.17842,4.4 -0.76112,0.62672 -1.95119,1.5668 -2.6446,2.08907 -0.6934,0.52227 -1.4945,1.12865 -1.78021,1.34751 -0.9282,0.71103 -3.52186,1.95332 -5.07743,2.43195 -2.02906,0.62431 -3.02292,0.74518 -4.27309,0.51964 -1.2961,-0.23381 -3.83274,-1.15954 -4.30264,-1.57021 -0.19266,-0.16838 -0.55491,-0.41219 -0.805,-0.54181 -1.08245,-0.56101 -3.91199,-3.67662 -4.44666,-4.89623 -0.12524,-0.28567 -0.38215,-0.74736 -0.57093,-1.02597 -0.25323,-0.37375 -0.30975,-0.68495 -0.21557,-1.18697 0.13811,-0.73619 0.29194,-0.83314 0.64566,-0.40694 0.12482,0.15041 0.40066,0.29997 0.61297,0.33236 0.22692,0.0346 0.58274,0.41109 0.86336,0.91349 0.97644,1.74813 2.94979,3.77389 4.49481,4.61417 0.61536,0.33468 1.29732,0.71163 1.51547,0.83768 0.6407,0.37021 2.26982,0.49117 3.96067,0.29409 2.19314,-0.25563 5.14068,-1.60205 7.17387,-3.27699 0.26114,-0.21512 0.93184,-0.75181 1.49047,-1.19264 0.55862,-0.44084 1.66962,-1.35702 2.46889,-2.03597 1.95413,-1.65994 2.86182,-2.35299 3.54274,-2.70499 0.31361,-0.16212 0.7328,-0.47444 0.93154,-0.69404 0.19873,-0.2196 0.45994,-0.39927 0.58047,-0.39927 0.12052,0 0.72687,-0.31001 1.34745,-0.68891 0.62057,-0.3789 1.59836,-0.84471 2.17285,-1.03513 0.57449,-0.19043 1.55731,-0.5357 2.18403,-0.76727 0.96508,-0.35659 1.63363,-0.43336 4.36805,-0.50154 2.92968,-0.0731 3.29888,-0.12064 3.98822,-0.514 0.78236,-0.44644 3.66376,-1.26262 6.17224,-1.74834 1.05446,-0.20418 3.98905,-0.31581 11.29996,-0.42985 6.17656,-0.0964 11.1916,-0.26853 13.38903,-0.45967 1.93238,-0.16809 5.52178,-0.43447 7.97644,-0.59195 3.06892,-0.1969 4.93759,-0.40817 5.98233,-0.67637 0.83563,-0.21451 3.05763,-0.59838 4.93779,-0.85303 3.99294,-0.54081 6.10601,-1.14159 9.26876,-2.63526 1.23304,-0.58232 2.72862,-1.19883 3.32352,-1.37001 1.63715,-0.47109 2.45944,-0.95655 2.95801,-1.74633 0.68321,-1.08228 1.65748,-1.74531 2.5646,-1.74531 1.2051,0 2.61198,-0.36839 3.29112,-0.86178 1.11594,-0.81071 2.6942,-1.5537 3.56785,-1.67961 1.13396,-0.16342 5.2329,0.82175 6.22561,1.49631 0.38473,0.26144 0.80063,0.47533 0.92423,0.47533 0.12359,0 1.10793,0.86853 2.18742,1.93005 1.922,1.89003 2.00011,1.94297 3.76689,2.55284 0.99231,0.34253 2.28504,0.75525 2.87274,0.91716 0.81175,0.22363 1.2393,0.48338 1.77907,1.08084 0.6601,0.73066 0.7022,0.84716 0.59328,1.64182 -0.16556,1.20787 -0.98718,2.4284 -2.21835,3.29539 -1.49402,1.0521 -3.14183,1.25768 -7.81949,0.97556 -3.91076,-0.23586 -6.02044,-0.0854 -7.59346,0.54135 -0.55155,0.21978 -1.38848,0.51596 -1.85985,0.65818 -0.47137,0.14222 -1.1503,0.47494 -1.50874,0.73939 -0.35843,0.26445 -0.74835,0.48082 -0.86648,0.48082 -0.33488,0 -2.32179,1.58884 -3.87124,3.09565 -1.63613,1.59112 -2.28809,2.55294 -4.01637,5.92532 -2.38945,4.66248 -3.65556,6.83884 -4.64036,7.97644 -1.16935,1.35079 -1.46413,2.28759 -0.80627,2.56229 0.48625,0.20305 6.08813,0.57131 8.69046,0.57131 1.60477,0 1.83765,0.0487 2.76242,0.57781 0.86547,0.49518 1.06234,0.71836 1.37649,1.56052 0.3618,0.96987 0.36182,0.99988 0.002,2.29899 -0.20062,0.72395 -0.56513,1.66686 -0.81003,2.09535 -0.2449,0.42849 -0.55288,1.12092 -0.6844,1.53873 -0.49104,1.55993 -2.63963,4.11273 -4.45594,5.29422 -0.41781,0.27178 -0.94498,0.62905 -1.17149,0.79393 -0.37535,0.27323 -0.46365,0.27298 -0.99705,-0.003 -0.54326,-0.28093 -0.58523,-0.37564 -0.58523,-1.32049 0,-1.7027 0.49196,-2.86799 1.60009,-3.79011 0.53007,-0.44109 1.31072,-1.02359 1.73478,-1.29444 0.86374,-0.55168 2.432,-2.78795 2.32926,-3.32143 -0.0946,-0.49109 -0.90759,-0.84942 -1.67591,-0.73863 -0.36559,0.0527 -2.07482,0.30393 -3.79831,0.55826 -1.72348,0.25433 -3.74726,0.52123 -4.49729,0.59313 -1.72332,0.16518 -2.06398,0.47127 -1.89517,1.70284 0.11362,0.82897 0.0897,0.88174 -0.77753,1.71271 -0.49212,0.47157 -0.94654,0.8574 -1.00981,0.8574 -0.0633,0 -0.70573,0.56186 -1.42768,1.24858 -1.5798,1.50269 -2.03664,1.71535 -4.73112,2.20229 -1.6525,0.29864 -2.3548,0.52988 -3.36066,1.10657 -1.49017,0.85435 -1.73103,0.75247 -1.75345,-0.74162 -0.0117,-0.77663 0.0884,-1.03099 0.69863,-1.77593 0.76077,-0.92874 1.81254,-1.67896 2.3671,-1.68845 0.18653,-0.003 0.89465,0.0519 1.57359,0.12234 1.18588,0.12311 1.27864,0.10117 2.35755,-0.55751 0.61771,-0.37712 1.48266,-0.84472 1.92213,-1.03911 0.43946,-0.1944 0.85575,-0.44523 0.92508,-0.55742 0.20288,-0.32827 -0.96597,-1.76825 -1.83842,-2.26487 -0.44136,-0.25123 -1.25928,-0.53147 -1.81758,-0.62275 -2.31733,-0.37888 -3.30708,-1.51773 -3.1197,-3.58964 0.0766,-0.84739 0.0248,-1.14034 -0.26526,-1.4981 -0.33531,-0.41362 -0.5195,-0.44933 -2.63316,-0.51055 -2.60536,-0.0755 -6.32305,-0.56087 -7.24452,-0.94588 -0.34497,-0.14414 -1.29031,-0.44628 -2.10076,-0.67143 -0.81044,-0.22515 -1.72992,-0.56386 -2.04328,-0.75269 -0.31336,-0.18883 -0.95432,-0.44298 -1.42436,-0.56477 -0.47004,-0.1218 -1.15374,-0.41309 -1.51933,-0.64732 -0.36558,-0.23424 -1.04928,-0.57552 -1.51932,-0.7584 -0.47004,-0.18289 -1.15724,-0.53962 -1.52711,-0.79274 -0.36986,-0.25312 -1.06716,-0.53395 -1.54955,-0.62407 -0.80391,-0.15018 -0.89648,-0.12758 -1.10976,0.27093 -0.1893,0.35372 -0.17671,0.57469 0.0675,1.18516 0.32397,0.80968 0.79335,3.23171 0.98189,5.06657 0.16605,1.61607 1.01785,7.58691 1.25983,8.83106 0.25802,1.3266 1.27917,2.84629 2.50369,3.72602 0.88311,0.63445 3.39155,1.56995 6.10406,2.27646 0.62046,0.1616 1.44939,0.45773 1.84206,0.65806 1.18433,0.6042 3.1046,0.84456 4.82197,0.60358 1.24197,-0.17428 1.58256,-0.16231 2.03473,0.0715 0.29868,0.15445 0.58763,0.39697 0.6421,0.53891 0.15634,0.40741 -0.85331,1.76535 -1.80985,2.43419 -0.76776,0.53684 -1.02312,0.61021 -2.12576,0.61076 -0.68925,3.5e-4 -1.4584,-0.10663 -1.70924,-0.23772 -0.25083,-0.13109 -1.22521,-0.50364 -2.16529,-0.82789 -5.19764,-1.79276 -6.80548,-2.30222 -8.31846,-2.6358 -2.47401,-0.54547 -3.79663,-1.20244 -4.69677,-2.33296 -0.75821,-0.95227 -0.83538,-1.16301 -1.37174,-3.74564 -0.6802,-3.27527 -2.32885,-6.92859 -4.28521,-9.49576 -0.19901,-0.26114 -0.58039,-0.90701 -0.84752,-1.43528 -0.39588,-0.78285 -0.61846,-1.00122 -1.20356,-1.1808 -0.39482,-0.12117 -0.76459,-0.17358 -0.82172,-0.11645 -0.0571,0.0571 -0.15794,0.97306 -0.22405,2.03542 -0.13438,2.15966 -0.4075,2.97806 -1.45144,4.34932 -1.03201,1.3556 -2.89967,2.29086 -5.99585,3.00253 -1.34104,0.30824 -2.50187,0.59976 -2.57962,0.64781 -0.0777,0.048 -1.20254,0.2662 -2.49954,0.48477 -1.29699,0.21858 -2.66175,0.51402 -3.03278,0.65653 -0.37104,0.14251 -1.18047,0.35262 -1.79873,0.46691 -1.47989,0.27358 -1.75268,0.54133 -1.40547,1.37954 0.33679,0.8131 3.69225,4.71331 5.08313,5.90836 0.59106,0.50784 1.22481,1.0978 1.40832,1.31101 0.40556,0.47121 2.18629,1.56017 3.41855,2.09054 0.9903,0.42622 2.04021,1.47754 2.04021,2.04295 0,0.33355 -0.85412,1.18595 -1.11763,1.11538 -0.0642,-0.0172 -1.10652,-0.0833 -2.31615,-0.14699 z m 78.8972,-53.91674 c 0.29506,-0.32605 0.29317,-0.36952 -0.0288,-0.66086 -0.31506,-0.28513 -0.38133,-0.28613 -0.77324,-0.0116 -0.40755,0.28546 -0.41259,0.31799 -0.1023,0.66086 0.405,0.44751 0.50861,0.44884 0.9043,0.0116 z"
       id="path55" />
  </g>
  <g
     id="g9"
     transform="matrix(0.65294081,0,0,0.65294081,-334.54268,-38.071743)">
    <rect
       style="fill:none;stroke:#000000;stroke-opacity:1"
       id="rect1-2-5-3-6-7"
       width="209.54581"
       height="107.46752"
       x="512.94672"
       y="182.87024" />
    <path
       style="fill:#000000;stroke-width:0.189915"
       d="m 568.16436,267.91971 c -1.74952,-0.79585 -1.84571,-1.69247 -0.68413,-6.37682 0.42738,-1.72348 0.91649,-3.98822 1.08693,-5.03275 0.17043,-1.04454 0.42418,-2.3692 0.56389,-2.94369 0.13971,-0.57449 0.35467,-1.72823 0.47769,-2.56386 0.25682,-1.74454 0.51098,-2.32604 1.31086,-2.99909 0.88745,-0.74674 1.70977,-0.87112 9.65465,-1.46022 2.58033,-0.19133 4.76156,-0.55655 5.69381,-0.95337 0.23526,-0.10014 0.59297,-0.45376 0.79492,-0.78583 0.36082,-0.59332 0.36098,-0.62002 0.01,-1.54451 -0.1966,-0.51741 -0.47369,-1.08071 -0.61576,-1.25178 -0.40325,-0.4856 -0.66961,-1.2152 -1.17224,-3.21101 -1.0695,-4.24667 -1.31874,-7.44178 -0.77378,-9.91931 0.39832,-1.81088 0.3708,-2.03488 -0.2921,-2.37768 -0.92985,-0.48085 -2.62047,-0.21133 -4.55074,0.72549 -0.88785,0.4309 -1.76569,0.90838 -1.95074,1.06106 -0.18506,0.15269 -0.7153,0.49771 -1.17831,0.76672 -0.46301,0.26901 -2.60761,2.02742 -4.76576,3.90758 -3.86227,3.36477 -5.31869,4.52754 -6.44379,5.14456 -0.31336,0.17185 -0.74799,0.47509 -0.96584,0.67385 -0.40223,0.36699 -3.04421,1.55378 -4.25683,1.91219 -0.38734,0.11449 -1.65529,0.15676 -3.03865,0.10132 -2.17253,-0.0871 -2.52664,-0.15511 -4.17381,-0.80188 -0.98993,-0.38871 -2.04708,-0.91475 -2.34923,-1.16899 -0.30214,-0.25424 -0.79405,-0.58879 -1.09312,-0.74345 -0.29907,-0.15465 -0.67246,-0.53007 -0.82977,-0.83426 -0.1573,-0.30419 -0.45766,-0.60756 -0.66747,-0.67415 -0.20981,-0.0666 -0.43619,-0.35039 -0.50306,-0.63068 -0.0669,-0.28028 -0.21114,-0.62295 -0.32058,-0.76148 -0.14351,-0.18163 -0.12296,-0.29998 0.0737,-0.4244 0.44381,-0.28082 0.67366,-0.20649 0.90042,0.29119 0.11767,0.25825 0.51596,0.59574 0.8851,0.74997 0.36914,0.15424 0.67117,0.36352 0.67117,0.46508 0,0.10155 0.79052,0.56981 1.75672,1.04056 1.5598,0.75998 1.9879,0.87989 3.81918,1.06975 3.11223,0.32268 5.27556,0.0322 7.23145,-0.97095 0.82907,-0.42522 1.84284,-1.04227 2.25282,-1.37123 1.45814,-1.16995 4.24336,-3.62004 6.0532,-5.32485 1.01033,-0.9517 2.27478,-2.07221 2.80989,-2.49003 0.53511,-0.41781 1.24678,-0.98283 1.5815,-1.25559 0.33472,-0.27276 0.88398,-0.63695 1.22057,-0.80931 0.33659,-0.17235 0.92539,-0.52605 1.30843,-0.78599 0.38305,-0.25995 0.81984,-0.47262 0.97066,-0.47262 0.15082,0 0.92941,-0.27566 1.73021,-0.61257 l 1.45601,-0.61256 3.98822,-0.0171 c 3.67041,-0.0157 4.07902,-0.0516 5.12771,-0.45076 1.70586,-0.64921 2.65469,-0.89455 4.74788,-1.22764 1.04453,-0.16622 2.59928,-0.42893 3.45499,-0.5838 1.03894,-0.18802 3.53118,-0.3184 7.50165,-0.39243 7.62148,-0.1421 11.75967,-0.39678 14.00562,-0.86194 0.98593,-0.2042 3.50705,-0.54546 5.6025,-0.75836 4.31671,-0.43858 10.58244,-1.39575 11.92246,-1.82131 0.49268,-0.15646 1.86007,-0.48156 3.03865,-0.72244 2.27678,-0.46534 4.67062,-1.10914 7.46049,-2.00644 0.94008,-0.30235 2.17928,-0.67528 2.75377,-0.82873 0.57449,-0.15345 1.5573,-0.49736 2.18402,-0.76424 0.62672,-0.26689 1.31906,-0.48727 1.53852,-0.48975 0.21946,-0.002 0.79294,-0.21396 1.2744,-0.46995 0.48145,-0.25599 1.23411,-0.56204 1.67257,-0.68011 0.80448,-0.21662 1.37914,-0.69184 2.26607,-1.87394 l 0.48436,-0.64555 2.10904,0.0262 c 2.29312,0.0285 3.40441,-0.22902 4.1956,-0.97231 0.61191,-0.57485 2.96213,-0.70131 4.21652,-0.22687 0.47004,0.17778 1.42186,0.52038 2.11515,0.76134 1.45985,0.50737 2.80815,1.46782 3.81887,2.72033 1.38226,1.71293 2.1448,2.49715 2.80208,2.88176 0.36559,0.21393 0.93303,0.57782 1.26098,0.80864 0.7624,0.53661 1.5814,1.03245 2.9054,1.75897 0.70162,0.385 1.18188,0.81086 1.43032,1.26829 0.35372,0.65128 0.35712,0.72413 0.0626,1.34165 -0.54188,1.13633 -2.06255,2.61723 -3.28541,3.19949 -1.35854,0.64686 -2.37563,0.69286 -3.87376,0.17519 -2.18889,-0.75635 -4.62615,-1.34153 -5.583,-1.34047 -0.97049,0.001 -1.4315,0.0653 -4.70767,0.65623 -2.16808,0.39104 -4.66983,1.63309 -7.61686,3.78157 -4.36785,3.1843 -6.31391,6.65512 -6.79491,12.11877 -0.27032,3.07056 -0.3183,3.27799 -1.07243,4.63613 -0.74047,1.33355 -0.79787,1.88133 -0.25742,2.45662 0.36644,0.39005 0.4343,0.39757 1.37689,0.15254 1.60851,-0.41813 6.24505,-0.68773 9.69114,-0.56352 6.74828,0.24324 8.35914,0.72039 9.25283,2.74072 0.40629,0.9185 0.83827,4.57977 1.0588,8.97392 0.10914,2.17475 0.0815,2.65567 -0.18159,3.16451 -0.43324,0.83779 -0.60295,0.89185 -1.26441,0.40281 -0.51561,-0.3812 -2.20422,-2.49017 -2.77678,-3.46802 -0.28268,-0.48278 -0.11672,-1.75467 0.33158,-2.54125 0.42565,-0.74683 0.44897,-1.56671 0.0956,-3.36014 -0.48898,-2.4813 -0.78822,-2.85531 -2.15998,-2.69965 -1.60462,0.1821 -5.77684,1.22679 -6.06992,1.51987 -0.18645,0.18644 -0.3352,0.89896 -0.43045,2.06175 -0.22847,2.78923 -0.87846,3.97927 -4.39367,8.04405 -2.71615,3.14081 -2.9968,3.28706 -3.40423,1.774 -0.36028,-1.33796 -0.0252,-2.03565 1.88566,-3.92686 1.28237,-1.26915 1.80508,-1.94947 2.28564,-2.97485 1.05168,-2.24396 0.97719,-3.3299 -0.27466,-4.00407 -0.6198,-0.33378 -0.77634,-0.33404 -4.52018,-0.008 -4.84742,0.42257 -4.97903,0.39411 -6.68154,-1.44476 -1.36514,-1.47447 -1.8023,-1.66531 -3.81472,-1.66531 -1.7865,0 -2.48821,-0.25163 -3.40059,-1.21944 -1.58932,-1.68587 -2.35212,-1.98984 -6.45711,-2.57309 -0.83563,-0.11873 -2.20302,-0.4173 -3.03865,-0.66349 -0.83563,-0.24618 -1.98936,-0.55223 -2.56385,-0.68009 -0.5745,-0.12787 -1.27455,-0.34882 -1.55567,-0.491 -0.28112,-0.14218 -1.26393,-0.43144 -2.18402,-0.6428 -0.9201,-0.21137 -2.10021,-0.55245 -2.62248,-0.75797 -0.52226,-0.20552 -1.56903,-0.50182 -2.32615,-0.65844 -0.75712,-0.15663 -1.6972,-0.41932 -2.08907,-0.58377 -0.39187,-0.16444 -1.26799,-0.41543 -1.94694,-0.55774 -4.25596,-0.89208 -6.05438,-0.75669 -7.28584,0.54848 -0.40357,0.42773 -0.94735,1.26559 -1.20841,1.86192 -0.26106,0.59632 -0.6742,1.21496 -0.91809,1.37477 -0.43413,0.28445 -0.44275,0.34929 -0.41099,3.09391 0.0341,2.94519 -0.16993,4.1824 -0.80669,4.89243 -0.18735,0.20891 -0.48045,0.65648 -0.65133,0.99461 -0.27062,0.53547 -2.03138,2.66211 -3.66952,4.43204 -1.33925,1.44698 -1.71723,1.88699 -2.42637,2.82457 -0.41782,0.55239 -1.03227,1.33807 -1.36545,1.74595 -0.77982,0.95465 -0.89511,1.35007 -0.62886,2.15683 0.30596,0.92705 0.82793,1.02273 6.07748,1.11412 4.71259,0.0821 5.13563,0.14695 7.18607,1.1024 1.25011,0.58252 2.87944,1.91766 2.87944,2.35953 0,0.30615 -0.61015,0.65348 -1.50087,0.85437 -0.76253,0.17198 -1.45591,-0.1203 -2.49603,-1.05213 -1.09256,-0.97881 -2.12311,-1.16701 -4.82256,-0.88071 -2.89647,0.30719 -8.70159,0.48902 -9.89572,0.30995 -0.72471,-0.10867 -1.07548,-0.30301 -1.73204,-0.95956 -0.70409,-0.7041 -0.82329,-0.93633 -0.82329,-1.60405 0,-0.42941 0.13765,-1.09849 0.30587,-1.48684 0.16823,-0.38834 0.58483,-1.51797 0.92578,-2.51027 0.779,-2.26724 1.47711,-3.98996 2.136,-5.27105 0.50981,-0.99123 0.51075,-1.00038 0.13961,-1.35709 -0.35695,-0.34308 -0.4628,-0.3467 -2.36776,-0.081 -2.86519,0.39971 -8.24322,0.0418 -13.19911,-0.87847 -0.52227,-0.097 -1.60306,-0.18142 -2.40175,-0.18765 -1.41736,-0.011 -1.46566,0.004 -2.01487,0.62957 -0.46039,0.52435 -0.62394,0.9819 -0.89949,2.51638 -0.18523,1.03151 -0.52816,2.51645 -0.76208,3.29985 -0.23392,0.7834 -0.48959,1.89441 -0.56816,2.4689 -0.0786,0.57449 -0.22318,1.25685 -0.32138,1.51635 -0.11791,0.31158 -0.10339,0.74022 0.0428,1.26217 0.18813,0.67196 0.36776,0.86829 1.19919,1.31067 1.15895,0.61666 2.40227,1.74863 2.40227,2.18712 0,0.69028 -0.69826,0.99824 -2.61367,1.15271 -2.57527,0.20769 -2.68068,0.1995 -3.76233,-0.29254 z M 676.12411,213.8044 c 0.36101,-0.43499 -0.24363,-0.8034 -0.85866,-0.52317 -0.4025,0.18339 -0.44756,0.27188 -0.25599,0.50271 0.29154,0.35128 0.83186,0.3612 1.11465,0.0205 z"
       id="path54" />
  </g>
</svg>
